<svg viewBox="0 0 28 28" class="icon-small" xmlns="http://www.w3.org/2000/svg">
<title>Divi Builder Plugin</title>
<path d="M26.71,19.22l-1.2,1.6l-1.05-0.78l1.2-1.6c0.22-0.29,0.16-0.7-0.13-0.91c-0.29-0.22-0.7-0.16-0.91,0.13 l-1.2,1.6c-0.39-0.29-0.93-0.21-1.22,0.18l-1.22,1.63c-0.62,0.83-0.72,1.9-0.34,2.79l0.07,0.07c-2.02,1.38-4.46,2.17-7.1,2.08 c-6.21-0.2-11.37-5.33-11.6-11.54C1.75,7.63,7.23,2,14,2c6.32,0,11.51,4.91,11.97,11.11C26,13.62,26.44,14,26.95,14h0.03 c0.58,0,1.03-0.5,0.99-1.08C27.37,5.18,20.48-0.8,12.41,0.09C5.99,0.8,0.8,5.99,0.09,12.41C-0.84,20.85,5.74,28,14,28 c3.06,0,5.88-1,8.18-2.67l0.07,0.06c1.15,0.44,2.5,0.09,3.27-0.95l1.22-1.63c0.29-0.39,0.21-0.93-0.17-1.22l1.2-1.6 c0.22-0.29,0.16-0.7-0.13-0.91C27.34,18.87,26.93,18.93,26.71,19.22z"></path>
<path d="M17.92,17.49c0.37-0.44,0.65-0.96,0.84-1.55c0.19-0.6,0.44-2.64-0.01-3.98c-0.2-0.59-0.48-1.11-0.85-1.54 c-0.37-0.43-0.82-0.76-1.36-1C16,9.18,15.36,9,14.65,9H11v10h3.65c0.72,0,1.36-0.24,1.91-0.49C17.1,18.27,17.56,17.92,17.92,17.49z M17.22,7.54c0.81,0.34,1.51,0.83,2.08,1.45c0.56,0.62,0.99,1.36,1.28,2.2C20.86,12.03,21,13.01,21,14c0,0.97-0.13,1.83-0.41,2.67 c-0.28,0.84-0.7,1.59-1.26,2.21c-0.56,0.63-1.25,1.13-2.08,1.49C16.44,20.72,15.49,21,14.43,21H10c-0.55,0-1-0.45-1-1V8 c0-0.55,0.45-1,1-1h4.43C15.47,7,16.41,7.2,17.22,7.54z"></path>
</svg>