<svg viewBox="0 0 28 28" class="icon-small" xmlns="http://www.w3.org/2000/svg">
<title>Documentation</title>
<path d="M9.47,17h7.04c0.28,0,0.5,0.22,0.5,0.5s-0.22,0.5-0.5,0.5H9.47c-0.28,0-0.5-0.22-0.5-0.5S9.2,17,9.47,17z M9.47,14h7.04c0.28,0,0.5,0.22,0.5,0.5s-0.22,0.5-0.5,0.5H9.47c-0.28,0-0.5-0.22-0.5-0.5S9.2,14,9.47,14z M9.47,11h7.04 c0.28,0,0.5,0.22,0.5,0.5s-0.22,0.5-0.5,0.5H9.47c-0.28,0-0.5-0.22-0.5-0.5S9.2,11,9.47,11z M12.47,8h4.04c0.28,0,0.5,0.22,0.5,0.5 S16.79,9,16.51,9h-4.04c-0.28,0-0.5-0.22-0.5-0.5S12.19,8,12.47,8z M7,21H19c0.55,0,1-0.45,1-1V6c0-0.55-0.45-1-1-1H7 C6.45,5,6,5.45,6,6V20C6,20.55,6.45,21,7,21z"></path>
<path class="transparent" d="M21,7h-1v13c0,0.55-0.45,1-1,1H8v1c0,0.55,0.45,1,1,1h12c0.55,0,1-0.45,1-1V8C22,7.45,21.55,7,21,7z"></path>
</svg>