<svg viewBox="0 0 28 28" class="icon-small" xmlns="http://www.w3.org/2000/svg">
<title>200+ Elements</title>
<path class="transparent" d="M23,11.12V5.88c0-.49-.39-.88-.88-.88h-5.24c-.49,0-.88,.39-.88,.88v5.24c0,.49,.39,.88,.88,.88h5.24c.49,0,.88-.39,.88-.88Zm-11,11v-5.24c0-.49-.39-.88-.88-.88H5.88c-.49,0-.88,.39-.88,.88v5.24c0,.49,.39,.88,.88,.88h5.24c.49,0,.88-.39,.88-.88Zm11,0v-5.24c0-.49-.39-.88-.88-.88h-5.24c-.49,0-.88,.39-.88,.88v5.24c0,.49,.39,.88,.88,.88h5.24c.49,0,.88-.39,.88-.88Z"></path>
<path d="M11,12H6c-.55,0-1-.45-1-1V6c0-.55,.45-1,1-1h5c.55,0,1,.45,1,1v5c0,.55-.45,1-1,1Z"></path>
</svg>