<svg viewBox="0 0 28 28" class="icon-small" xmlns="http://www.w3.org/2000/svg">
<title>No-Code Design</title>
<rect class="transparent" x="11.24" y="3.13" width="5.52" height="21.74" rx="1.41" ry="1.41" transform="translate(-5.8 14) rotate(-45)"></rect>
<path d="M8.47,16.44c-1.49,0-2.68,1.22-2.68,2.74,0,1.2-1.04,1.83-1.79,1.83,.82,1.11,2.23,1.83,3.58,1.83,1.98,0,3.58-1.64,3.58-3.66,0-1.52-1.2-2.74-2.68-2.74Zm14.17-7.19l-8.64,8.64-3.9-3.9L18.74,5.36c.55-.55,1.44-.55,1.99,0l1.91,1.91c.55,.55,.55,1.44,0,1.99Z"></path>
</svg>