<svg viewBox="0 0 28 28" class="icon-small" xmlns="http://www.w3.org/2000/svg">
<title>Log Out</title>
<path d="M21.58,15.79c0.08-0.06,0.15-0.13,0.21-0.21l0.94-0.94c0.35-0.35,0.35-0.92,0-1.27l-0.94-0.94 c-0.06-0.08-0.13-0.15-0.21-0.21l-3.04-3.04C17.97,8.6,17,9,17,9.8V12h-5c-0.55,0-1,0.45-1,1v2c0,0.55,0.45,1,1,1h5v2.2 c0,0.8,0.97,1.21,1.54,0.64L21.58,15.79z"></path>
<path class="transparent" d="M20,21H8V7h12l2,1.8V6c0-0.55-0.45-1-1-1H7C6.45,5,6,5.45,6,6v16c0,0.55,0.45,1,1,1h14c0.55,0,1-0.45,1-1v-2.8 L20,21z"></path>
</svg>