<svg viewBox="0 0 28 28" class="icon-small" xmlns="http://www.w3.org/2000/svg">
<title>Billing</title>
<path d="M20,6l-2-2l-2.08,2L14,4l-1.96,2L10,4L8,6L6,4v20l2-2l2,2l2.08-2L14,24l1.96-2L18,24l2-2l2,2V4L20,6z M9.47,9 h9.04c0.28,0,0.5,0.22,0.5,0.5s-0.22,0.5-0.5,0.5H9.47c-0.28,0-0.5-0.22-0.5-0.5S9.19,9,9.47,9z M13.51,19H9.47 c-0.28,0-0.5-0.22-0.5-0.5S9.2,18,9.47,18h4.04c0.28,0,0.5,0.22,0.5,0.5S13.79,19,13.51,19z M13.51,16H9.47 c-0.28,0-0.5-0.22-0.5-0.5S9.2,15,9.47,15h4.04c0.28,0,0.5,0.22,0.5,0.5S13.79,16,13.51,16z M19,18.5c0,0.28-0.22,0.5-0.5,0.5h-2 c-0.28,0-0.5-0.22-0.5-0.5v-3c0-0.28,0.22-0.5,0.5-0.5h2c0.28,0,0.5,0.22,0.5,0.5V18.5z M18.51,13H9.47c-0.28,0-0.5-0.22-0.5-0.5 S9.2,12,9.47,12h9.04c0.28,0,0.5,0.22,0.5,0.5S18.79,13,18.51,13z"></path>
</svg>