<svg width="168" height="112" viewBox="0 0 168 112" xmlns="http://www.w3.org/2000/svg">
<title>Online Store Owners</title>
<path class="transparent" d="M133,15V4.07c0-2.24,1.83-4.07,4.07-4.07h26.86c2.24,0,4.07,1.83,4.07,4.07V20.93c0,2.24-1.83,4.07-4.07,4.07h-22.93v-2h22.93c1.14,0,2.07-.93,2.07-2.07V4.07c0-1.14-.93-2.07-2.07-2.07h-26.86c-1.14,0-2.07,.93-2.07,2.07V15h-2ZM25,49c.7,0,1.37-.13,2-.35v-11.3c-.63-.22-1.3-.35-2-.35-3.31,0-6,2.69-6,6s2.69,6,6,6ZM9,26.5c0-3.03,2.47-5.5,5.5-5.5s5.5,2.47,5.5,5.5-2.47,5.5-5.5,5.5-5.5-2.47-5.5-5.5Zm2,0c0,1.93,1.57,3.5,3.5,3.5s3.5-1.57,3.5-3.5-1.57-3.5-3.5-3.5-3.5,1.57-3.5,3.5Zm50,10.5h-18c-1.1,0-2,.9-2,2v18h18c1.44,0,2.79,.35,4,.95v-18.95c0-1.1-.9-2-2-2Zm46,25h18c1.1,0,2-.9,2-2v-21c0-1.1-.9-2-2-2h-18c-1.1,0-2,.9-2,2v21c0,1.1,.9,2,2,2Zm-25,3v-10c0-.4,.24-.77,.62-.92,.37-.16,.8-.07,1.09,.22l10.28,10.28c.61-.43,1.01-1.14,1.01-1.94v-27.27c0-1.31-1.06-2.37-2.37-2.37h-17.27c-1.31,0-2.37,1.06-2.37,2.37v27.27c0,1.31,1.06,2.37,2.37,2.37h6.63Zm72.5-32c-2.48,0-4.5,2.02-4.5,4.5s2.02,4.5,4.5,4.5,4.5-2.02,4.5-4.5-2.02-4.5-4.5-4.5Zm-68.65,40l-2.5,.94c-.31,.11-.65,.07-.92-.11-.27-.19-.43-.49-.43-.82h-10c-.55,0-1,.45-1,1s.45,1,1,1h16s.03,0,.04,0l-.75-1.99h-1.45Zm2.95,4h-16.8c-.55,0-1,.45-1,1s.45,1,1,1h17.78c-.25-.27-.45-.59-.59-.95l-.39-1.05Zm-16.8,6h16c.55,0,1-.45,1-1s-.45-1-1-1h-16c-.55,0-1,.45-1,1s.45,1,1,1Zm-32-4h20c.55,0,1-.45,1-1s-.45-1-1-1h-20c-.55,0-1,.45-1,1s.45,1,1,1Zm0,4h16c.55,0,1-.45,1-1s-.45-1-1-1h-16c-.55,0-1,.45-1,1s.45,1,1,1Zm64-8h16c.55,0,1-.45,1-1s-.45-1-1-1h-16c-.55,0-1,.45-1,1s.45,1,1,1Zm0,4h20c.55,0,1-.45,1-1s-.45-1-1-1h-20c-.55,0-1,.45-1,1s.45,1,1,1Zm0,4h16c.55,0,1-.45,1-1s-.45-1-1-1h-16c-.55,0-1,.45-1,1s.45,1,1,1Z"></path>
<path d="M107,64h18c2.21,0,4-1.79,4-4v-21c0-2.21-1.79-4-4-4h-18c-2.21,0-4,1.79-4,4v21c0,2.21,1.79,4,4,4Zm-2-25c0-1.1,.9-2,2-2h18c1.1,0,2,.9,2,2v21c0,1.1-.9,2-2,2h-18c-1.1,0-2-.9-2-2v-21Zm61-29h-31V5h31v5Zm-18,27.5c0,3.58,2.92,6.5,6.5,6.5s6.5-2.92,6.5-6.5-2.92-6.5-6.5-6.5-6.5,2.92-6.5,6.5Zm6.5,4.5c-2.48,0-4.5-2.02-4.5-4.5s2.02-4.5,4.5-4.5,4.5,2.02,4.5,4.5-2.02,4.5-4.5,4.5Zm-1.23,64.85l2.02-13c.08-.55,.6-.92,1.14-.83,.55,.08,.92,.6,.83,1.14l-2.02,13c-.08,.49-.5,.85-.99,.85-.05,0-.1,0-.15-.01-.55-.08-.92-.6-.83-1.14Zm-7.18,.1l.67-13c.03-.55,.5-.98,1.05-.95,.55,.03,.98,.5,.95,1.05l-.67,13c-.03,.53-.47,.95-1,.95-.02,0-.04,0-.05,0-.55-.03-.98-.5-.95-1.05Zm-6.9-13.95c.53-.04,1.02,.4,1.05,.95l.67,13c.03,.55-.4,1.02-.95,1.05-.02,0-.04,0-.05,0-.53,0-.97-.41-1-.95l-.67-13c-.03-.55,.4-1.02,.95-1.05Zm-7.44,14.15l-2.02-13c-.08-.55,.29-1.06,.83-1.14,.54-.08,1.06,.29,1.14,.83l2.02,13c.08,.55-.29,1.06-.83,1.14-.05,0-.1,.01-.15,.01-.48,0-.91-.35-.99-.85Zm-28.76-37.15c0-.55,.45-1,1-1h22c.55,0,1,.45,1,1s-.45,1-1,1h-22c-.55,0-1-.45-1-1ZM7.25,65.14c-.24-.23-.11-.63,.22-.68l2.02-.29c.13-.02,.24-.1,.3-.22l.9-1.83c.15-.3,.57-.3,.71,0l.9,1.83c.06,.12,.17,.2,.3,.22l2.02,.29c.33,.05,.46,.45,.22,.68l-1.46,1.42c-.09,.09-.14,.22-.11,.35l.34,2.01c.06,.32-.28,.57-.58,.42l-1.8-.95c-.12-.06-.25-.06-.37,0l-1.8,.95c-.29,.15-.63-.09-.58-.42l.34-2.01c.02-.13-.02-.26-.11-.35l-1.46-1.42Zm11.48,0c-.24-.23-.11-.63,.22-.68l2.02-.29c.13-.02,.24-.1,.3-.22l.9-1.83c.15-.3,.57-.3,.71,0l.9,1.83c.06,.12,.17,.2,.3,.22l2.02,.29c.33,.05,.46,.45,.22,.68l-1.46,1.42c-.09,.09-.14,.22-.11,.35l.34,2.01c.06,.32-.28,.57-.58,.42l-1.8-.95c-.12-.06-.25-.06-.37,0l-1.8,.95c-.29,.15-.63-.09-.58-.42l.34-2.01c.02-.13-.02-.26-.11-.35l-1.46-1.42Zm11.48,0c-.24-.23-.11-.63,.22-.68l2.02-.29c.13-.02,.24-.1,.3-.22l.9-1.83c.15-.3,.57-.3,.71,0l.9,1.83c.06,.12,.17,.2,.3,.22l2.02,.29c.33,.05,.46,.45,.22,.68l-1.46,1.42c-.09,.09-.14,.22-.11,.35l.34,2.01c.06,.32-.28,.57-.58,.42l-1.8-.95c-.12-.06-.25-.06-.37,0l-1.8,.95c-.29,.15-.63-.09-.58-.42l.34-2.01c.02-.13-.02-.26-.11-.35l-1.46-1.42Zm15.63-3.01l.9,1.83c.06,.12,.17,.2,.3,.22l2.02,.29c.33,.05,.46,.45,.22,.68l-1.46,1.42c-.09,.09-.14,.22-.11,.35l.34,2.01c.06,.32-.28,.57-.58,.42l-1.8-.95c-.12-.06-.25-.06-.37,0l-1.8,.95c-.29,.15-.63-.09-.58-.42l.34-2.01c.02-.13-.02-.26-.11-.35l-1.46-1.42c-.24-.23-.11-.63,.22-.68l2.02-.29c.13-.02,.24-.1,.3-.22l.9-1.83c.15-.3,.57-.3,.71,0Zm11.48,0l.9,1.83c.06,.12,.17,.2,.3,.22l2.02,.29c.33,.05,.46,.45,.22,.68l-1.46,1.42c-.09,.09-.14,.22-.11,.35l.34,2.01c.06,.32-.28,.57-.58,.42l-1.8-.95c-.12-.06-.25-.06-.37,0l-1.8,.95c-.29,.15-.63-.09-.58-.42l.34-2.01c.02-.13-.02-.26-.11-.35l-1.46-1.42c-.24-.23-.11-.63,.22-.68l2.02-.29c.13-.02,.24-.1,.3-.22l.9-1.83c.15-.3,.57-.3,.71,0Zm31.88,15.93c.13,.36,.34,.67,.59,.95,.56,.62,1.36,1,2.22,1,.36,0,.72-.06,1.05-.19,.75-.28,1.35-.84,1.68-1.57,.33-.73,.36-1.54,.08-2.29l-1.86-4.95h1.05c.55,0,1-.45,1-1,0-.14-.03-.28-.09-.4l1.53-.57c.32-.12,.55-.39,.63-.72,.07-.33-.03-.68-.27-.92l-1.4-1.4c.97-.8,1.6-2,1.6-3.35v-27.27c0-2.41-1.96-4.37-4.37-4.37h-17.27c-2.41,0-4.37,1.96-4.37,4.37v27.27c0,2.41,1.96,4.37,4.37,4.37h6.63v2h-10c-.55,0-1,.45-1,1s.45,1,1,1h10v2c0,.33,.16,.64,.43,.82,.27,.19,.61,.23,.92,.11l2.5-.94,1.27-.48,.18,.48,.75,1.99,.75,2.01,.39,1.05Zm-5.19-20.64l10.29,10.29-3.19,1.2c-.25,.09-.45,.28-.56,.52-.11,.24-.12,.52-.03,.76l2.43,6.47c.09,.25,.08,.52-.03,.76-.11,.24-.31,.43-.56,.52-.51,.19-1.1-.08-1.29-.59l-2.42-6.47c-.09-.25-.28-.45-.52-.56-.13-.06-.27-.09-.41-.09-.12,0-.24,.02-.35,.06l-3.35,1.26v-14.14Zm-11,5.22v-27.27c0-1.31,1.06-2.37,2.37-2.37h17.27c1.31,0,2.37,1.06,2.37,2.37v27.27c0,.8-.4,1.51-1.01,1.94l-10.28-10.28c-.29-.29-.72-.37-1.09-.22-.37,.15-.62,.52-.62,.92v10h-6.63c-1.31,0-2.37-1.06-2.37-2.37Zm94,47.37h-5.74c.73-.81,1.25-1.83,1.45-2.97l2.8-16.08c1.41-.22,2.5-1.45,2.5-2.99,0-1.63-1.33-2.96-2.96-2.96h-5.84l-6.37-9.55c-.31-.46-.93-.58-1.39-.28-.46,.31-.58,.93-.28,1.39l5.63,8.45h-15.8V20c0-2.76-2.24-5-5-5H32c-2.76,0-5,2.24-5,5v15.26c-.64-.17-1.31-.26-2-.26-4.41,0-8,3.59-8,8s3.59,8,8,8c.69,0,1.36-.1,2-.26v6.26H9c-4.96,0-9,4.04-9,9s4.04,9,9,9H27v17c0,2.76,2.24,5,5,5H122.55l1.74,10.03c.2,1.15,.72,2.16,1.45,2.97H1c-.55,0-1,.45-1,1s.45,1,1,1H167c.55,0,1-.45,1-1s-.45-1-1-1Zm-40.73-3.31l-2.73-15.69h39.93l-2.73,15.69c-.33,1.92-1.99,3.31-3.94,3.31h-26.59c-1.95,0-3.61-1.39-3.94-3.31ZM29,75h30c4.96,0,9-4.04,9-9,0-2.66-1.16-5.04-3-6.69v-20.31c0-2.21-1.79-4-4-4h-18c-2.21,0-4,1.79-4,4v18h-10V25h110v60h-9.79l5.63-8.45c.31-.46,.18-1.08-.28-1.39-.46-.31-1.08-.18-1.39,.28l-6.37,9.55h-5.84c-1.63,0-2.96,1.33-2.96,3.04s1.33,2.96,2.96,2.96h.55l.7,4H32c-1.65,0-3-1.35-3-3v-17ZM9,59H59c3.86,0,7,3.14,7,7s-3.14,7-7,7H9c-3.86,0-7-3.14-7-7s3.14-7,7-7Zm54-1.05c-1.21-.6-2.56-.95-4-.95h-18v-18c0-1.1,.9-2,2-2h18c1.1,0,2,.9,2,2v18.95ZM25,37c.7,0,1.37,.13,2,.35v11.3c-.63,.22-1.3,.35-2,.35-3.31,0-6-2.69-6-6s2.69-6,6-6Zm7-20h104c1.65,0,3,1.35,3,3v3H29v-3c0-1.65,1.35-3,3-3ZM165.04,87c.53,0,.96,.43,.96,1.04,0,.53-.43,.96-.96,.96h-44.08c-.53,0-.96-.43-.96-1.04,0-.53,.43-.96,.96-.96h44.08Z"></path>
</svg>