<svg viewBox="0 0 28 28" class="icon-small" xmlns="http://www.w3.org/2000/svg">
<title>Website Examples</title>
<path d="M23,17V7c0-.55-.45-1-1-1h-7v-1c0-.55-.45-1-1-1s-1,.45-1,1v1H6c-.55,0-1,.45-1,1v10c-.55,0-1,.45-1,1s.45,1,1,1h3.61l-1.56,4.68c-.17,.52,.11,1.09,.63,1.26,.11,.04,.21,.05,.32,.05,.42,0,.81-.26,.95-.68l1.77-5.32h2.28v4c0,.55,.45,1,1,1s1-.45,1-1v-4h2.28l1.77,5.32c.14,.42,.53,.68,.95,.68,.1,0,.21-.02,.32-.05,.52-.17,.81-.74,.63-1.26l-1.56-4.68h3.61c.55,0,1-.45,1-1s-.45-1-1-1Zm-16,0V8h14v9H7Z"></path>
<rect class="transparent" x="9" y="10" width="10" height="5"></rect>
</svg>