<svg viewBox="0 0 28 28" class="icon-small" xmlns="http://www.w3.org/2000/svg">
<title>About Divi</title>
<path d="M14,2c6.62,0,12,5.38,12,12s-5.38,12-12,12S2,20.62,2,14S7.38,2,14,2 M14,0C6.27,0,0,6.27,0,14 c0,7.73,6.27,14,14,14s14-6.27,14-14C28,6.27,21.73,0,14,0L14,0z"></path>
<path d="M17.92,17.49c0.37-0.44,0.65-0.96,0.84-1.55c0.19-0.6,0.44-2.64-0.01-3.98c-0.2-0.59-0.48-1.11-0.85-1.54 c-0.37-0.43-0.82-0.76-1.36-1C16,9.18,15.36,9,14.65,9H11v10h3.65c0.72,0,1.36-0.24,1.91-0.49C17.1,18.27,17.56,17.92,17.92,17.49z M17.22,7.54c0.81,0.34,1.51,0.83,2.08,1.45c0.56,0.62,0.99,1.36,1.28,2.2C20.86,12.03,21,13.01,21,14c0,0.97-0.13,1.83-0.41,2.67 c-0.28,0.84-0.7,1.59-1.26,2.21c-0.56,0.63-1.25,1.13-2.08,1.49C16.44,20.72,15.49,21,14.43,21H10c-0.55,0-1-0.45-1-1V8 c0-0.55,0.45-1,1-1h4.43C15.47,7,16.41,7.2,17.22,7.54z"></path>
</svg>