<svg viewBox="0 0 28 28" class="icon-small" xmlns="http://www.w3.org/2000/svg">
<title>Constant Updates</title>
<path class="transparent" d="M26,6c1.1,0,2-0.9,2-2s-0.9-2-2-2h-4.83H18v2.84V10c0,1.1,0.9,2,2,2s2-0.9,2-2V8.77 c2.34,2.93,2.67,6.75,0.66,10.23c-2.57,4.45-8.06,6.18-12.66,4.16V26H6.83c0.06,0.04,0.11,0.09,0.18,0.13C9.2,27.4,11.6,28,13.98,28 c4.84,0,9.56-2.51,12.15-7c2.92-5.05,2.34-10.79-1.21-15H26z"></path>
<path d="M10,23.16V18c0-1.32-1.27-2.34-2.65-1.9C6.51,16.37,6,17.21,6,18.08v1.26C3.64,16.38,3.32,12.5,5.34,9 c1.34-2.31,3.49-3.97,6.07-4.66c2.21-0.59,4.51-0.41,6.59,0.5V2h3.17C21.12,1.96,21.06,1.91,21,1.88c-3.24-1.87-7.01-2.37-10.62-1.4 C6.77,1.45,3.75,3.76,1.88,7C-1.02,12.02-0.48,17.76,3,22H2c-1.32,0-2.34,1.27-1.9,2.65C0.37,25.49,1.21,26,2.08,26h4.74H10V23.16z"></path>
</svg>