<svg viewBox="0 0 28 28" class="icon-small" xmlns="http://www.w3.org/2000/svg">
<title>Subscriptions</title>
<path d="M8.49,20c-0.85,0-1.55-0.73-1.47-1.58C7.34,14.75,8.31,14,10,14c1.69,0,2.67,0.75,2.98,4.42 c0.07,0.85-0.62,1.58-1.47,1.58L8.49,20z M12,11c0,1.1-0.9,2-2,2s-2-0.9-2-2s0.9-2,2-2S12,9.9,12,11z"></path>
<path class="transparent" d="M22,7H6C5.45,7,5,7.45,5,8v12c0,0.55,0.45,1,1,1h16c0.55,0,1-0.45,1-1V8C23,7.45,22.55,7,22,7z M20,16h-4 c-0.55,0-1-0.45-1-1c0-0.55,0.45-1,1-1h4c0.55,0,1,0.45,1,1C21,15.55,20.55,16,20,16z M20,12h-4c-0.55,0-1-0.45-1-1 c0-0.55,0.45-1,1-1h4c0.55,0,1,0.45,1,1C21,11.55,20.55,12,20,12z"></path>
</svg>