<svg width="168" height="112" viewBox="0 0 168 112" xmlns="http://www.w3.org/2000/svg">
<title>Small Business Owners</title>
<path d="M49.23,87.76l24.19,2.59s.07,0,.11,0c.23,0,.45-.08,.63-.22,.21-.17,.34-.41,.37-.67l1.5-14s0-.02,0-.04c0-.07,0-.14-.02-.22,0-.06,0-.12-.03-.17-.02-.06-.05-.1-.08-.16-.03-.06-.06-.13-.11-.18,0,0-.01-.02-.02-.03l-10.94-11.64c.12-.32,.19-.66,.19-1.03,0-1.65-1.35-3-3-3s-3,1.35-3,3c0,.33,.07,.64,.17,.94l-9.04,9.12s-.05,.08-.07,.11c-.04,.05-.08,.11-.11,.17-.03,.06-.04,.12-.06,.19-.01,.04-.03,.08-.04,.13l-1.5,14c-.06,.55,.34,1.04,.89,1.1Zm12.75-24.82l.05,.05s-.02,0-.03,0c-.02,0-.04-.01-.07-.01l.05-.05Zm.02,2.06c.56,0,1.07-.16,1.52-.43l8.93,9.5-19.44-2.08,7.4-7.46c.46,.29,1.01,.47,1.6,.47Zm-10.28,8.86l22.2,2.37-1.28,12.01-22.2-2.37,1.28-12.01Zm45.28,7.14h38c.55,0,1-.45,1-1v-27c0-.55-.45-1-1-1h-38c-.55,0-1,.45-1,1v27c0,.55,.45,1,1,1Zm1-27h36v25h-36v-25Zm5.79,11.21c-.39-.39-.39-1.02,0-1.41l5.5-5.5c.39-.39,1.02-.39,1.41,0s.39,1.02,0,1.41l-5.5,5.5c-.2,.2-.45,.29-.71,.29s-.51-.1-.71-.29Zm26.91,3.09c.39,.39,.39,1.02,0,1.41l-5.5,5.5c-.2,.2-.45,.29-.71,.29s-.51-.1-.71-.29c-.39-.39-.39-1.02,0-1.41l5.5-5.5c.39-.39,1.02-.39,1.41,0Zm-11.5-11.5c.39,.39,.39,1.02,0,1.41l-15.5,15.5c-.2,.2-.45,.29-.71,.29s-.51-.1-.71-.29c-.39-.39-.39-1.02,0-1.41l15.5-15.5c.39-.39,1.02-.39,1.41,0Zm48.79,41.21c0-7.72-6.28-14-14-14-1.76,0-3.44,.34-5,.94V46.94c4.49-.5,8-4.32,8-8.94v-14s-.01-.04-.01-.06c0-.1-.02-.19-.06-.28-.01-.04-.03-.07-.05-.11-.04-.07-.08-.14-.13-.2-.03-.03-.05-.06-.08-.09-.01-.01-.02-.03-.03-.04l-17.66-14.72c-.26-4.73-4.18-8.51-8.98-8.51H37c-4.96,0-9,4.04-9,9,0,.11,.03,.21,.06,.31L11.36,23.23s-.02,.03-.03,.04c-.03,.03-.05,.06-.08,.09-.05,.06-.1,.13-.13,.2-.02,.04-.03,.07-.05,.11-.03,.09-.05,.18-.06,.28,0,.02-.01,.04-.01,.06v14c0,4.62,3.51,8.44,8,8.94v48.42c-1.91-2.64-5-4.36-8.5-4.36-5.79,0-10.5,4.71-10.5,10.5,0,3.5,1.72,6.59,4.36,8.5H1c-.55,0-1,.45-1,1s.45,1,1,1H167c.55,0,1-.45,1-1s-.45-1-1-1h-5.83c4.08-2.45,6.83-6.9,6.83-12Zm-89,12H39v-4h46v4h-6Zm0-6H45V54h34v50Zm7,0h-5V53c0-.55-.45-1-1-1H44c-.55,0-1,.45-1,1v51h-5c-.55,0-1,.45-1,1v5h-13.03c.63-.84,1.03-1.87,1.03-3,0-2.41-1.72-4.43-4-4.9V46.94c3.06-.34,5.65-2.22,7-4.84,1.5,2.9,4.52,4.9,8,4.9s6.5-1.99,8-4.9c1.5,2.9,4.52,4.9,8,4.9s6.5-1.99,8-4.9c1.5,2.9,4.52,4.9,8,4.9s6.5-1.99,8-4.9c1.5,2.9,4.52,4.9,8,4.9s6.5-1.99,8-4.9c1.5,2.9,4.52,4.9,8,4.9s6.5-1.99,8-4.9c1.5,2.9,4.52,4.9,8,4.9s6.5-1.99,8-4.9c1.5,2.9,4.52,4.9,8,4.9s6.5-1.99,8-4.9c1.35,2.62,3.94,4.5,7,4.84v38.95c-4.18,2.43-7,6.94-7,12.11s2.75,9.55,6.83,12h-59.83v-5c0-.55-.45-1-1-1ZM10.5,93c4.69,0,8.5,3.81,8.5,8.5,0,.21-.02,.41-.03,.61-2.26,.48-3.97,2.49-3.97,4.89,0,.54,.11,1.05,.27,1.53-1.36,.92-3,1.47-4.77,1.47-4.69,0-8.5-3.81-8.5-8.5s3.81-8.5,8.5-8.5Zm9.5,17c-1.65,0-3-1.35-3-3s1.35-3,3-3,3,1.35,3,3-1.35,3-3,3ZM37,2h93c3.52,0,6.44,2.61,6.93,6H30.07c.49-3.39,3.41-6,6.93-6Zm118,36c0,3.86-3.14,7-7,7s-7-3.14-7-7v-13h14v13ZM30.36,10h9.34l-12.13,13H14.76l15.6-13Zm108.64,28c0,3.86-3.14,7-7,7s-7-3.14-7-7v-13h14v13Zm-16,0c0,3.86-3.14,7-7,7s-7-3.14-7-7v-13h14v13Zm-16,0c0,3.86-3.14,7-7,7s-7-3.14-7-7v-13h14v13Zm-16,0c0,3.86-3.14,7-7,7s-7-3.14-7-7v-13h14v13Zm-16,0c0,3.86-3.14,7-7,7s-7-3.14-7-7v-13h14v13Zm-16,0c0,3.86-3.14,7-7,7s-7-3.14-7-7v-13h14v13Zm-16,0c0,3.86-3.14,7-7,7s-7-3.14-7-7v-13h14v13Zm21.52-28l-5.2,13h-13.45l8.67-13h9.99Zm12.34,0l-1.73,13h-13.65l5.2-13h10.18Zm12.27,0l1.73,13h-13.72l1.73-13h10.25Zm12.2,0l5.2,13h-13.65l-1.73-13h10.18Zm12.14,0l8.67,13h-13.45l-5.2-13h9.99Zm12.1,0l12.13,13h-13.16l-8.67-13h9.7ZM43.46,23h-13.16l12.13-13h9.7l-8.67,13Zm104.54,0h-7.57l-12.13-13h9.34l15.6,13h-5.24ZM13,25h14v13c0,3.86-3.14,7-7,7s-7-3.14-7-7v-13ZM142,98c0-6.62,5.38-12,12-12s12,5.38,12,12-5.38,12-12,12-12-5.38-12-12Z"></path>
<path class="transparent" d="M62,63s-.04-.01-.07-.01l.05-.05,.05,.05s-.02,0-.03,0Zm10.44,11.07l-8.93-9.5c-.45,.26-.96,.43-1.52,.43-.59,0-1.13-.18-1.6-.47l-7.4,7.46,19.44,2.08Zm-27.44-20.07h34v50H45V54Zm3.34,32.66c-.06,.55,.34,1.04,.89,1.1l24.19,2.59s.07,0,.11,0c.23,0,.45-.08,.63-.22,.21-.17,.34-.41,.37-.67l1.5-14s0-.02,0-.04c0-.07,0-.14-.02-.22,0-.06,0-.12-.03-.17-.02-.06-.05-.1-.08-.16-.03-.06-.06-.13-.11-.18,0,0-.01-.02-.02-.03l-10.94-11.64c.12-.32,.19-.66,.19-1.03,0-1.65-1.35-3-3-3s-3,1.35-3,3c0,.33,.07,.64,.17,.94l-9.04,9.12s-.05,.08-.07,.11c-.04,.05-.08,.11-.11,.17-.03,.06-.04,.12-.06,.19-.01,.04-.03,.08-.04,.13l-1.5,14ZM29,38c0,3.86,3.14,7,7,7s7-3.14,7-7v-13h-14v13Zm32,0c0,3.86,3.14,7,7,7s7-3.14,7-7v-13h-14v13Zm32,0c0,3.86,3.14,7,7,7s7-3.14,7-7v-13h-14v13Zm32,0c0,3.86,3.14,7,7,7s7-3.14,7-7v-13h-14v13ZM30.3,23h13.16l8.67-13h-9.7l-12.13,13Zm31.18,0h13.65l1.73-13h-10.18l-5.2,13Zm45.05,0l-5.2-13h-10.18l1.73,13h13.65Zm18.01,0h13.16l-12.13-13h-9.7l8.67,13ZM10.5,110c1.77,0,3.41-.54,4.77-1.47-.16-.49-.27-1-.27-1.53,0-2.4,1.71-4.41,3.97-4.89,.01-.2,.03-.4,.03-.61,0-4.69-3.81-8.5-8.5-8.5s-8.5,3.81-8.5,8.5,3.81,8.5,8.5,8.5Zm9.5-6c-1.65,0-3,1.35-3,3s1.35,3,3,3,3-1.35,3-3-1.35-3-3-3Zm146-6c0-6.62-5.38-12-12-12s-12,5.38-12,12,5.38,12,12,12,12-5.38,12-12Z"></path>
</svg>