<svg viewBox="0 0 28 28" class="icon-small" xmlns="http://www.w3.org/2000/svg">
<title>Bloom</title>
<path d="M28.31,14c0-2.24-1.27-4.43-3.5-6.06c-0.24-2.17-1.14-4.37-2.94-5.7c-2.21-1.63-5.15-1.42-7.56-0.36 c-2.38-1.05-5.29-1.26-7.5,0.32c-1.84,1.32-2.77,3.55-3,5.74c-1.94,1.42-3.5,3.58-3.5,6.06c0,2.49,1.56,4.64,3.5,6.06 c0.24,2.17,1.14,4.37,2.94,5.7c2.21,1.63,5.15,1.42,7.56,0.36c2.38,1.05,5.29,1.26,7.5-0.32c1.84-1.32,2.77-3.55,3-5.74 C27.04,18.43,28.31,16.24,28.31,14z M3.83,17.37c-0.79-0.85-1.39-1.93-1.47-3.11c-0.07-1.01,0.28-2,0.84-2.84 C4.43,9.6,6.59,8.36,8.72,7.94c-0.36,0.33-0.69,0.7-0.99,1.09l-2.65,4.46C4.4,14.67,4,16.02,3.83,17.37 C2.88,16.34,3.84,17.3,3.83,17.37z M8.94,17.1L8.94,17.1c-1.1-1.9-1.1-4.3,0-6.2l0,0c1.1-1.9,3.18-3.1,5.37-3.1 c2.2,0,4.27,1.2,5.37,3.1l0,0c1.1,1.9,1.1,4.3,0,6.2l0,0c-1.1,1.9-3.18,3.1-5.37,3.1C12.11,20.21,10.04,19,8.94,17.1z M22.82,8.57 c0.08,1.25-0.08,2.51-0.46,3.62c-0.11-0.48-0.26-0.94-0.45-1.39l-2.54-4.53c-0.65-1.12-1.6-2.16-2.73-3.02 c1.63-0.37,3.39-0.12,4.58,1.14C22.28,5.49,22.72,7.07,22.82,8.57C22.9,9.82,22.67,6.28,22.82,8.57z M13.86,3.92 c1.09,0.54,2.1,1.29,2.9,2.21c-0.79-0.25-1.62-0.37-2.45-0.37h-4.17c-1.29,0-2.67,0.3-3.99,0.86c0.42-1.37,1.3-2.65,2.66-3.2 C10.45,2.74,12.34,3.16,13.86,3.92C13.95,3.96,12.75,3.37,13.86,3.92z M5.81,19.43c-0.08-1.25,0.08-2.51,0.46-3.62 c0.11,0.49,0.27,0.97,0.46,1.43l2.53,4.49c0.65,1.12,1.6,2.16,2.73,3.02c-1.63,0.37-3.39,0.12-4.58-1.14 C6.35,22.51,5.9,20.93,5.81,19.43C5.72,18.18,5.95,21.72,5.81,19.43z M14.76,24.08c-1.09-0.54-2.1-1.29-2.9-2.21 c0.79,0.25,1.62,0.37,2.45,0.37h4.17c1.37,0,2.73-0.33,3.99-0.86c-0.42,1.37-1.3,2.65-2.66,3.2 C18.18,25.26,16.29,24.84,14.76,24.08C14.68,24.04,15.87,24.63,14.76,24.08z M23.27,18.65c-1.04,0.7-2.22,1.18-3.37,1.41 c0.34-0.32,0.66-0.66,0.95-1.04l2.69-4.52c0.68-1.18,1.08-2.53,1.25-3.88c1.1,1.18,1.77,2.78,1.35,4.39 C25.74,16.56,24.56,17.79,23.27,18.65C22.23,19.35,25.18,17.38,23.27,18.65z"></path>
</svg>