<svg viewBox="0 0 28 28" class="icon-small" xmlns="http://www.w3.org/2000/svg">
<title>Integrations</title>
<path d="M16.39,22.9c.18-.16,.34-.33,.5-.5,.3-.33,.34-.82,.09-1.19l-.8-1.19c-.38-.57-.06-1.34,.61-1.47l1.41-.28c.43-.09,.75-.46,.78-.9,0-.12,.01-.24,.01-.36s0-.24-.01-.36c-.02-.44-.34-.81-.78-.9l-1.41-.28c-.67-.13-.99-.9-.61-1.47l.8-1.19c.25-.37,.21-.86-.09-1.19-.16-.18-.33-.34-.5-.5-.33-.3-.82-.34-1.19-.09l-1.19,.8c-.57,.38-1.34,.06-1.47-.61l-.28-1.41c-.09-.43-.46-.75-.9-.78-.12,0-.24-.01-.36-.01s-.24,0-.36,.01c-.44,.02-.81,.34-.9,.78l-.28,1.41c-.13,.67-.9,.99-1.47,.61l-1.19-.8c-.37-.25-.86-.21-1.19,.09-.18,.16-.34,.33-.5,.5-.3,.33-.34,.82-.09,1.19l.8,1.19c.38,.57,.06,1.34-.61,1.47l-1.41,.28c-.43,.09-.75,.46-.78,.9,0,.12-.01,.24-.01,.36s0,.24,.01,.36c.02,.44,.34,.81,.78,.9l1.41,.28c.67,.13,.99,.9,.61,1.47l-.8,1.19c-.25,.37-.21,.86,.09,1.19,.16,.18,.33,.34,.5,.5,.33,.3,.82,.34,1.19,.09l1.19-.8c.57-.38,1.34-.06,1.47,.61l.28,1.41c.09,.43,.46,.75,.9,.78,.12,0,.24,.01,.36,.01s.24,0,.36-.01c.44-.02,.81-.34,.9-.78l.28-1.41c.13-.67,.9-.99,1.47-.61l1.19,.8c.37,.25,.86,.21,1.19-.09Zm-5.39-2.7c-1.77,0-3.2-1.43-3.2-3.2s1.43-3.2,3.2-3.2,3.2,1.43,3.2,3.2-1.43,3.2-3.2,3.2Z"></path>
<path class="transparent" d="M24.76,10.96c.07-.16,.14-.32,.2-.48,.11-.3,0-.64-.27-.82l-.87-.58c-.41-.28-.41-.88,0-1.16l.87-.58c.27-.18,.38-.51,.27-.82-.03-.08-.06-.17-.09-.25s-.07-.16-.11-.24c-.14-.29-.46-.45-.77-.39l-1.02,.2c-.49,.1-.91-.33-.82-.82l.2-1.02c.06-.32-.1-.64-.39-.77-.16-.07-.32-.14-.48-.2-.3-.11-.64,0-.82,.27l-.58,.87c-.28,.41-.88,.41-1.16,0l-.58-.87c-.18-.27-.51-.38-.82-.27-.08,.03-.17,.06-.25,.09s-.16,.07-.24,.11c-.29,.14-.45,.46-.39,.77l.2,1.02c.1,.49-.33,.91-.82,.82l-1.02-.2c-.32-.06-.64,.1-.77,.39-.07,.16-.14,.32-.2,.48-.11,.3,0,.64,.27,.82l.87,.58c.41,.28,.41,.88,0,1.16l-.87,.58c-.27,.18-.38,.51-.27,.82,.03,.08,.06,.17,.09,.25s.07,.16,.11,.24c.14,.29,.46,.45,.77,.39l1.02-.2c.49-.1,.91,.33,.82,.82l-.2,1.02c-.06,.32,.1,.64,.39,.77,.16,.07,.32,.14,.48,.2,.3,.11,.64,0,.82-.27l.58-.87c.28-.41,.88-.41,1.16,0l.58,.87c.18,.27,.51,.38,.82,.27,.08-.03,.17-.06,.25-.09s.16-.07,.24-.11c.29-.14,.45-.45,.39-.77l-.2-1.02c-.1-.49,.33-.91,.82-.82l1.02,.2c.32,.06,.64-.1,.77-.39Zm-4.37-.31c-1.19,.49-2.54-.07-3.04-1.26s.07-2.54,1.26-3.04,2.54,.07,3.04,1.26-.07,2.54-1.26,3.04Z"></path>
</svg>