<svg viewBox="0 0 28 28" class="icon-small" xmlns="http://www.w3.org/2000/svg">
<title>Split Testing</title>
<path d="M22.92,16.27C22.13,15.61,21,16.23,21,17.32V20h-1.83c-0.94,0-2.16-1.6-3.22-3c-0.65-0.85-1.34-1.74-2.11-2.5 c0.77-0.76,1.46-1.65,2.11-2.5c1.07-1.41,2.28-3,3.22-3H21v1.68c0,1.09,1.13,1.71,1.92,1.04l4.62-3.93c0.64-0.55,0.64-1.54,0-2.08 l-4.62-3.93C22.13,1.11,21,1.73,21,2.82V5h-1.75c-2.64,0-4.35,2.26-5.86,4.25C12.45,10.47,11.29,12,10.5,12H6.51 c0,0-1.72-1.5-3.01-1.5C1.57,10.5,0,12.07,0,14c0,1.93,1.57,3.5,3.5,3.5c1.29,0,3.01-1.5,3.01-1.5h3.99c0.79,0,1.95,1.53,2.88,2.75 C14.9,20.74,16.61,23,19.25,23H21v2.18c0,1.09,1.13,1.71,1.92,1.04l4.62-3.93c0.64-0.55,0.64-1.54,0-2.08L22.92,16.27z"></path>
</svg>