<svg viewBox="0 0 28 28" class="icon-small" xmlns="http://www.w3.org/2000/svg">
<title>Simple Pricing</title>
<path class="transparent" d="m14.56 5h8.44c1.1 0 2 .9 2 2v8.43c0 .29-.38.77-.45.84l-11.28 11.28c-.3.3-.69.45-1.08.45s-.78-.15-1.08-.45l-8.66-8.66c-.6-.6-.6-1.57 0-2.17l11.27-11.27c.07-.07.61-.44.84-.45z"></path>
<path d="m20.89 5.75c.91 0 1.64-.74 1.64-1.64 0-.91-.74-1.64-1.64-1.64-.91 0-1.64.74-1.64 1.64s.74 1.64 1.64 1.64zm-6.33-5.75h8.44c1.1 0 2 .9 2 2v8.43c0 .29-.38.77-.45.84l-11.28 11.28c-.3.3-.69.45-1.08.45s-.78-.15-1.08-.45l-8.66-8.66c-.6-.6-.6-1.57 0-2.17l11.27-11.27c.07-.07.61-.44.84-.45z"></path>
</svg>