<svg viewBox="0 0 28 28" class="icon-small" xmlns="http://www.w3.org/2000/svg">
<title>Developers</title>
<path d="M19,19.19c-.26,0-.51-.1-.71-.29-.39-.39-.39-1.02,0-1.41l3.49-3.49-3.49-3.49c-.39-.39-.39-1.02,0-1.41s1.02-.39,1.41,0l4.19,4.19c.39,.39,.39,1.02,0,1.41l-4.19,4.19c-.2,.2-.45,.29-.71,.29Zm-9.29-.29c.39-.39,.39-1.02,0-1.41l-3.49-3.49,3.49-3.49c.39-.39,.39-1.02,0-1.41s-1.02-.39-1.41,0l-4.19,4.19c-.39,.39-.39,1.02,0,1.41l4.19,4.19c.2,.2,.45,.29,.71,.29s.51-.1,.71-.29Z"></path>
<path class="transparent" d="M13,21c-.05,0-.11,0-.17-.01-.54-.09-.91-.61-.82-1.15l2-12c.09-.54,.6-.92,1.15-.82,.54,.09,.91,.61,.82,1.15l-2,12c-.08,.49-.5,.84-.99,.84Z"></path>
</svg>