<svg viewBox="0 0 28 28" class="icon-small" xmlns="http://www.w3.org/2000/svg">
<title>Twitter</title>
<path d="M22.34,9.04c-0.61,0.26-1.27,0.44-1.96,0.52c0.71-0.41,1.25-1.05,1.5-1.82c-0.66,0.38-1.39,0.65-2.17,0.8 c-0.62-0.64-1.51-1.04-2.5-1.04c-1.89,0-3.42,1.47-3.42,3.28c0,0.26,0.03,0.51,0.09,0.75c-2.84-0.14-5.36-1.45-7.05-3.43 C6.53,8.58,6.37,9.15,6.37,9.75c0,1.14,0.6,2.14,1.52,2.73c-0.56-0.02-1.09-0.17-1.55-0.41c0,0.01,0,0.03,0,0.04 c0,1.59,1.18,2.92,2.74,3.22c-0.29,0.07-0.59,0.11-0.9,0.11c-0.22,0-0.43-0.02-0.64-0.06c0.44,1.3,1.7,2.25,3.19,2.28 c-1.17,0.88-2.65,1.4-4.25,1.4c-0.28,0-0.55-0.02-0.82-0.05c1.51,0.93,3.31,1.48,5.24,1.48c6.29,0,9.73-5,9.73-9.34 c0-0.14,0-0.28-0.01-0.43C21.3,10.28,21.88,9.7,22.34,9.04z"></path>
</svg>