<svg viewBox="0 0 28 28" class="icon-small" xmlns="http://www.w3.org/2000/svg">
<title>Workflow</title>
<path class="transparent" d="M18,10H10c-1.1,0-2-.9-2-2v-2c0-1.1,.9-2,2-2h8c1.1,0,2,.9,2,2v2c0,1.1-.9,2-2,2ZM10,6v2h8v-2H10Zm8,18H10c-1.1,0-2-.9-2-2v-2c0-1.1,.9-2,2-2h8c1.1,0,2,.9,2,2v2c0,1.1-.9,2-2,2Zm-8-4v2h8v-2H10Zm8-3H10c-1.1,0-2-.9-2-2v-2c0-1.1,.9-2,2-2h8c1.1,0,2,.9,2,2v2c0,1.1-.9,2-2,2Zm-8-4v2h8v-2H10Z"></path>
<path d="M19,15v-2c1.38,0,2.5-1.12,2.5-2.5s-1.12-2.5-2.5-2.5v-2c2.48,0,4.5,2.02,4.5,4.5s-2.02,4.5-4.5,4.5Zm-10.5,5c-1.38,0-2.5-1.12-2.5-2.5s1.12-2.5,2.5-2.5v-2c-2.48,0-4.5,2.02-4.5,4.5s2.02,4.5,4.5,4.5v-2Z"></path>
</svg>