<svg viewBox="0 0 28 28" class="icon-small" xmlns="http://www.w3.org/2000/svg">
<title>Dribbble</title>
<path d="M19.29,9.69c-0.14,0.19-1.29,1.66-3.82,2.69c0.16,0.33,0.31,0.66,0.45,0.99c0.05,0.12,0.1,0.24,0.15,0.35 c2.27-0.29,4.53,0.17,4.76,0.22C20.82,12.33,20.24,10.85,19.29,9.69z M12.4,7.37c0.19,0.25,1.43,1.94,2.55,4 c2.43-0.91,3.46-2.29,3.58-2.47C17.32,7.83,15.74,7.18,14,7.18C13.45,7.18,12.91,7.24,12.4,7.37z M7.31,12.61 c0.31,0,3.12,0.02,6.32-0.83c-1.13-2.01-2.35-3.71-2.53-3.95C9.18,8.73,7.75,10.49,7.31,12.61z M8.92,18.58 c0.16-0.26,2.03-3.37,5.55-4.51c0.09-0.03,0.18-0.06,0.27-0.08c-0.17-0.39-0.36-0.78-0.55-1.16c-3.41,1.02-6.72,0.98-7.02,0.97 c0,0.07,0,0.14,0,0.21C7.17,15.76,7.83,17.37,8.92,18.58z M16.67,20.3c-0.1-0.6-0.5-2.69-1.46-5.18c-0.02,0-0.03,0.01-0.05,0.01 c-3.85,1.34-5.24,4.01-5.36,4.27c1.16,0.9,2.61,1.44,4.19,1.44C14.95,20.84,15.85,20.65,16.67,20.3z M20.75,15.1 c-0.23-0.07-2.11-0.64-4.26-0.29c0.89,2.46,1.26,4.46,1.33,4.87C19.35,18.64,20.44,17,20.75,15.1z M14,22c-4.41,0-8-3.59-8-8 c0-4.41,3.59-8,8-8c4.41,0,8,3.59,8,8C22,18.41,18.41,22,14,22z">
</path></svg>