<svg width="168" height="112" viewBox="0 0 168 112" xmlns="http://www.w3.org/2000/svg">
<title>Web Design Agencies</title>
<path d="M168,111c0,.55-.45,1-1,1H1c-.55,0-1-.45-1-1s.45-1,1-1H11.11c-1.3-1.27-2.11-3.04-2.11-5v-3c0-.55,.45-1,1-1h12v-26.55c-1.14,1.05-1.57,2.57-1.22,5.85,.19,.95-.11,1.91-.82,2.58-.53,.51-1.22,.77-1.93,.77-.25,0-.5-.03-.75-.1l-12.76-3.51c-2.14-.59-3.77-2.3-4.25-4.47,0-.04-.02-.08-.02-.13-.05-.54-1.11-13.27,4.61-21.38,0,0,2.72-4.28,2.77-8.71,.01-1.19,.55-2.3,1.47-3.05,.92-.75,2.12-1.05,3.3-.83,1.57,.3,2.8,1.59,3.14,3.17l2.08-3.72c.82-1.63,2.66-2.43,4.4-2.05v-10.87c0-3.86,3.14-7,7-7h38.24c-1.74-3.78-2.54-6.88-2.6-7.14-.01-.04-.02-.08-.02-.13-.26-2.21,.72-4.36,2.55-5.62L78.07,.61c.82-.56,1.85-.65,2.75-.24,.89,.4,1.49,1.21,1.62,2.17,1.22,5.23,2.86,5.4,6.45,5.77,1.75,.18,3.94,.41,6.49,1.33,4.46,1.62,7,3.36,7.77,5.31,.37,.95,.32,1.96-.15,2.91l17.13,3.15h18.88c3.86,0,7,3.14,7,7v26.92l.69,.8c.01-1.62,.96-3.13,2.44-3.74,1.11-.46,2.35-.4,3.4,.15,1.05,.55,1.8,1.54,2.05,2.7,.94,4.33,4.45,7.97,4.49,8.01,7.2,6.77,8.71,19.46,8.77,20,0,.04,0,.09,0,.13-.04,2.22-1.29,4.23-3.27,5.23l-11.8,6c-.4,.21-.84,.31-1.27,.31-.52,0-1.03-.14-1.49-.43-.82-.52-1.31-1.4-1.32-2.36-.34-3.54-1.16-4.9-2.7-5.66v14.94h11c.55,0,1,.45,1,1v3c0,1.96-.81,3.73-2.11,5h11.11c.55,0,1,.45,1,1ZM24,101h120v-15.62c-.3-.08-.6-.15-.93-.23-1.18-.28-2.55-.62-4.07-1.2-.64-.25-1.31-.54-2-.89-.06-.03-.12-.06-.18-.09-2.69-1.41-4.59-2.76-5.75-4.08-.5-.57-.84-1.13-1.07-1.69-.07-.17-.14-.35-.19-.52-.15-.61-.12-1.21,.05-1.8l-17.47,2.57-3.06,.45-4.34,.64-2,.29-6.05,.89c-.2,.03-.39,.04-.58,.04-1.95,0-3.66-1.43-3.95-3.42l-2.33-15.83c-.16-1.06,.11-2.11,.75-2.97,.64-.86,1.57-1.41,2.63-1.57l38.59-5.67c1.06-.16,2.11,.11,2.97,.75,.86,.64,1.41,1.57,1.57,2.63l.23,1.57c-.07-1.25,.45-2.52,1.5-3.36,1.73-1.37,4.25-1.08,5.62,.65l.06,.07V28c0-2.76-2.24-5-5-5h-12.6c.61,.75,.91,1.75,.73,2.77l-.59,3.23-.37,2-2.14,11.63c-.17,.9-.67,1.68-1.43,2.2-.58,.4-1.25,.61-1.94,.61-.21,0-.42-.02-.63-.06l-22.74-4.18c-1.53,.99-3.59,.85-4.95-.47l-3.15-2.8c.16,1.29-.29,2.58-1.19,3.46-.22,.21-.46,.41-.73,.57-.4,.23-.83,.38-1.27,.46-.25,.05-.5,.08-.75,.08-.46,0-.92-.08-1.37-.24-1.12-.41-1.99-1.28-2.39-2.4-1.5-4.17-5.47-7.31-5.51-7.34-.65-.47-1.26-.98-1.85-1.52-.68-.63-1.32-1.3-1.91-2-1.61-1.88-2.93-3.98-3.99-6H29c-2.76,0-5,2.24-5,5v11.98c1.15,1.18,1.51,2.98,.75,4.53l-.75,2.12v.16c.57-.13,1.16-.21,1.76-.26l1.22-7.26c.37-2.19,2.45-3.68,4.65-3.31l.37,.06,2,.34,39.68,6.68c2.19,.37,3.68,2.46,3.31,4.65l-.05,.3-.34,2-2.17,12.87c-.18,1.06-.76,1.99-1.64,2.62-.69,.49-1.5,.75-2.33,.75-.23,0-.45-.02-.68-.06l-33.73-5.68c.14,.4,.22,.83,.2,1.28-.08,2.1-1.92,4.57-5.6,7.57-2.1,1.71-4.09,2.64-5.69,3.39-.35,.16-.67,.31-.97,.46v27.8Zm.12-30.08c1.58-.74,3.36-1.57,5.28-3.13,4.15-3.38,4.83-5.27,4.86-6.1,.02-.47-.15-.85-.52-1.21-.57-.54-2.06,.31-3.64,1.2-.37,.21-.75,.42-1.13,.63-2.25,1.22-4.77,1.14-6.41-.2-1.5-1.22-1.97-3.22-1.29-5.47,.53-1.74,2.71-3.08,3.15-3.33,1.18-.68,2.61-.89,4-1.09,2.13-.31,3.15-.56,3.3-1.43,.06-.36,.04-.84-.64-1.33-1.72-1.25-6-1.33-8.32-.15-.02,.01-.05,.01-.07,.02-.02,0-.03,.02-.04,.03-.04,.01-1.94,.75-2.8,2.62-.17,.37-.53,.58-.91,.58-.14,0-.28-.03-.42-.09-.5-.23-.72-.82-.49-1.33,.93-2.02,2.65-3.06,3.47-3.47l1.38-3.91s.03-.08,.05-.12c.24-.48,.28-1.02,.12-1.53-.17-.51-.52-.92-1-1.16-.98-.5-2.19-.1-2.69,.88l-4.08,7.31c-.05,.14-.13,.27-.23,.38l-1.49,2.05c-.2,.27-.5,.41-.81,.41-.2,0-.41-.06-.59-.19-.45-.32-.55-.95-.22-1.4l1.4-1.93c.16-.98,.26-1.97,.27-2.95,.02-1.03-.67-1.94-1.6-2.12-.61-.12-1.19,.03-1.66,.41-.46,.38-.73,.93-.74,1.53-.06,5.02-2.99,9.61-3.11,9.81-5.13,7.27-4.35,19.05-4.28,20.02,.34,1.41,1.41,2.53,2.82,2.91l12.76,3.51c.4,.11,.67-.1,.77-.19s.32-.36,.23-.76c0-.04-.01-.07-.02-.11-.74-6.81,1.94-8.06,5.33-9.64Zm50.55-25.07c-.32-.44-.78-.74-1.32-.83l-42.06-7.08c-.11-.02-.23-.03-.34-.03-.98,0-1.84,.71-2.01,1.7l-1.16,6.91c1.76,.11,3.4,.56,4.47,1.34,1.13,.82,1.64,1.98,1.43,3.26-.39,2.42-2.83,2.78-4.98,3.09-.79,.12-1.59,.24-2.29,.45l-.02,.12c-.19,1.11,.56,2.16,1.67,2.35l42.06,7.08c.54,.09,1.08-.03,1.52-.35,.44-.32,.74-.78,.83-1.32l2.55-15.16c.09-.54-.03-1.08-.35-1.52Zm-50.67,14.83c1.02,.7,2.57,.67,4.03-.12,.37-.2,.74-.41,1.1-.61,.28-.16,.57-.32,.85-.48l-2.24-.38c-1.75-.3-3.03-1.69-3.3-3.36-.15,.12-.3,.25-.44,.38v4.56ZM66.6,13.44c.25,.95,3.4,12.33,10.58,17.48,.21,.17,4.49,3.55,6.19,8.27,.2,.56,.64,1,1.2,1.2,.56,.21,1.17,.15,1.7-.16,.82-.47,1.17-1.56,.82-2.52-.34-.92-.75-1.82-1.23-2.7l-1.95-1.36c-.45-.32-.56-.94-.25-1.39,.31-.45,.94-.56,1.39-.25l2.11,1.47c.12,.07,.23,.15,.32,.27l6.22,5.53c.82,.79,2.09,.77,2.86-.02,.77-.79,.74-2.06-.05-2.83-.03-.03-.06-.06-.09-.09l-2.59-3.24c-.91-.11-2.88-.53-4.42-2.13-.38-.4-.37-1.03,.03-1.41s1.03-.37,1.41,.03c1.44,1.5,3.48,1.56,3.5,1.56,.02,0,.03,0,.05,.01,.02,0,.05,0,.07,0,2.58,.35,6.6-1.12,7.81-2.87,.47-.68,.34-1.14,.16-1.46-.42-.78-1.46-.67-3.58-.27-1.37,.26-2.79,.53-4.13,.28-.49-.09-2.99-.63-4.06-2.11-1.38-1.9-1.6-3.94-.58-5.59,1.11-1.8,3.46-2.7,5.99-2.29,.43,.07,.86,.15,1.28,.23,1.79,.33,3.47,.64,3.83-.06,.23-.46,.26-.87,.09-1.31-.3-.77-1.56-2.34-6.59-4.16-2.32-.84-4.28-1.04-6.01-1.22-3.72-.38-6.66-.69-8.2-7.36,0-.04-.01-.07-.02-.11-.05-.41-.34-.58-.47-.64-.13-.06-.45-.16-.79,.07l-10.9,7.51c-1.2,.83-1.85,2.23-1.7,3.68Zm30.25,5.55c-.35-.06-.71-.13-1.08-.19-1.73-.28-3.28,.26-3.97,1.37-.16,.26-.26,.54-.3,.84h4.74l.16-.87c.08-.42,.24-.8,.44-1.14Zm-4.89,4.01c.1,.18,.21,.35,.34,.53,.43,.59,1.77,1.12,2.82,1.32,.13,.02,.27,.03,.41,.04l.35-1.89h-3.92Zm8.33-3.61c-.26,0-.54,0-.81-.02-.54,.12-.99,.54-1.1,1.12l-.78,4.25c.3-.05,.61-.11,.91-.17,2.14-.41,4.56-.87,5.72,1.28,.61,1.14,.51,2.4-.28,3.55-1.3,1.88-4.55,3.4-7.51,3.72l1.52,1.9c1.19,1.19,1.47,2.95,.83,4.42l21.61,3.97c.38,.07,.76-.01,1.07-.23,.31-.22,.53-.54,.59-.92l3.1-16.86c.14-.78-.37-1.52-1.15-1.66l-23.72-4.36Zm42.11,34.42c-.71-.89-1.97-1.04-2.84-.35-.86,.69-1.01,1.95-.32,2.81,.03,.03,.05,.07,.07,.11l2.14,3.55c.89,.23,2.78,.9,4.1,2.7,.33,.45,.23,1.07-.22,1.4-.18,.13-.39,.19-.59,.19-.31,0-.61-.14-.81-.41-1.22-1.67-3.24-2-3.26-2.01-.02,0-.03-.01-.05-.02-.02,0-.05,0-.07,0-2.51-.69-6.69,.24-8.13,1.81-.56,.62-.49,1.09-.36,1.43,.31,.83,1.36,.86,3.52,.74,1.4-.08,2.84-.16,4.13,.27,.47,.16,2.88,1.03,3.75,2.63,1.12,2.07,1.06,4.12-.16,5.62-1.34,1.64-3.79,2.22-6.24,1.48-.42-.13-.83-.26-1.23-.39-1.73-.56-3.36-1.09-3.8-.45-.29,.42-.38,.83-.26,1.28,.2,.8,1.24,2.52,5.98,5,2.19,1.14,4.1,1.6,5.8,2.01,3.64,.87,6.51,1.56,7.16,8.38,0,.04,0,.07,0,.11,0,.41,.26,.62,.38,.7,.12,.07,.43,.22,.79,.03l11.8-6c1.3-.66,2.13-1.97,2.18-3.42-.12-.97-1.73-12.67-8.18-18.73-.19-.19-3.98-4.11-5.04-9.01-.13-.58-.5-1.07-1.03-1.35-.53-.28-1.14-.3-1.71-.07-.88,.36-1.37,1.39-1.15,2.39,.21,.95,.5,1.91,.86,2.84l1.76,1.61c.41,.37,.44,1,.06,1.41-.2,.22-.47,.33-.74,.33-.24,0-.48-.09-.67-.26l-1.87-1.71c-.12-.09-.23-.19-.3-.32l-5.44-6.31Zm-4.94,5.79c.48-.04,.96-.07,1.43-.06l-1.26-2.08c-.39-.51-.62-1.09-.74-1.68l.56,3.82Zm-6.51,2.64c.96-1.06,2.67-1.88,4.53-2.32l-.87-5.95c-.08-.53-.36-1-.78-1.31-.35-.26-.76-.4-1.19-.4-.1,0-.2,0-.29,.02l-38.59,5.67c-.53,.08-1,.36-1.31,.78-.32,.43-.45,.96-.37,1.48l2.33,15.83c.08,.53,.36,.99,.79,1.31,.43,.32,.96,.45,1.48,.37l38.59-5.67c1.09-.16,1.85-1.18,1.69-2.27l-.31-2.1c-.31,.01-.62,.03-.93,.05-2.17,.12-4.63,.26-5.5-2.03-.46-1.21-.19-2.45,.75-3.48Zm5.92,11.35c.26,.08,.51,.17,.78,.25,.33,.1,.66,.16,.98,.19,1.3,.15,2.47-.21,3.13-1.02,.7-.85,.68-2.06-.04-3.4-.35-.64-1.61-1.35-2.62-1.68-.13-.04-.28-.06-.42-.09l.25,1.68c.19,1.3-.28,2.54-1.15,3.41-.27,.27-.57,.49-.9,.67Zm14.14,36.41c2.76,0,5-2.24,5-5v-2H11v2c0,2.76,2.24,5,5,5H151Z"></path>
<path class="transparent" d="M83.37,50h-6.76l.34-2h6.42c1.45,0,2.63-1.18,2.63-2.63v-2.94c.44-.08,.87-.23,1.27-.46,.27-.16,.51-.35,.73-.57v3.97c0,2.55-2.08,4.63-4.63,4.63Zm-10.01-4.97l-42.06-7.08c-.11-.02-.23-.03-.34-.03-.98,0-1.84,.71-2.01,1.7l-1.16,6.91c1.76,.11,3.4,.56,4.47,1.34,1.13,.82,1.64,1.98,1.43,3.26-.39,2.42-2.83,2.78-4.98,3.09-.79,.12-1.59,.24-2.29,.45l-.02,.12c-.19,1.11,.56,2.16,1.67,2.35l42.06,7.08c.54,.09,1.08-.03,1.52-.35,.44-.32,.74-.78,.83-1.32l2.55-15.16c.09-.54-.03-1.08-.35-1.52s-.78-.74-1.32-.83Zm14.65,30.98v15.99c0,2.21-1.8,4-4,4H36c-2.21,0-4-1.8-4-4v-15.99c0-2.21,1.8-4,4-4h47.99c2.21,0,4,1.8,4,4Zm-51.21-2l23.21,8.93,23.21-8.93H36.79Zm20.43,10l-23.01-8.85c-.12,.26-.2,.55-.2,.86v15.99c0,.31,.08,.6,.2,.86l23.01-8.85Zm26,10l-23.21-8.93-23.21,8.93h46.43Zm2.79-18c0-.31-.08-.6-.2-.86l-23.01,8.85,23.01,8.85c.12-.26,.2-.55,.2-.86v-15.99Zm17,16.38v-13.56l2-.29v13.86c0,.14,.02,.27,.06,.4l14.06-8.79-9.77-6.11,3.06-.45,8.6,5.38,9-5.63c.22,.56,.57,1.12,1.07,1.69l-8.18,5.11,14.06,8.79c.03-.13,.06-.26,.06-.4v-9.33c.69,.35,1.36,.64,2,.89v8.44c0,1.99-1.62,3.61-3.61,3.61h-28.78c-1.99,0-3.61-1.62-3.61-3.61Zm3.89,1.61h28.23l-14.11-8.82-14.11,8.82Zm31.73-19.97c-.21-.43-.5-.8-.85-1.12-.27,.27-.57,.49-.9,.67,.26,.08,.51,.17,.78,.25,.33,.1,.66,.16,.98,.19Zm-3.14-14.12l-.87-5.95c-.08-.53-.36-1-.78-1.31-.35-.26-.76-.4-1.19-.4-.1,0-.2,0-.29,.02l-38.59,5.67c-.53,.08-1,.36-1.31,.78-.32,.43-.45,.96-.37,1.48l2.33,15.83c.08,.53,.36,.99,.79,1.31,.43,.32,.96,.45,1.48,.37l38.59-5.67c1.09-.16,1.85-1.18,1.69-2.27l-.31-2.1c-.31,.01-.62,.03-.93,.05-2.17,.12-4.63,.26-5.5-2.03-.46-1.21-.19-2.45,.75-3.48,.96-1.06,2.67-1.88,4.53-2.32Zm-61.35-28.91c-.68-.63-1.32-1.3-1.91-2H24v2h8v5.03l2,.34v-5.37h40.13Zm69.87-2h-17.47l-.37,2h17.84v-2Zm-43.72-9.61c-.26,0-.54,0-.81-.02-.54,.12-.99,.54-1.1,1.12l-.78,4.25c.3-.05,.61-.11,.91-.17,2.14-.41,4.56-.87,5.72,1.28,.61,1.14,.51,2.4-.28,3.55-1.3,1.88-4.55,3.4-7.51,3.72l1.52,1.9c1.19,1.19,1.47,2.95,.83,4.42l21.61,3.97c.38,.07,.76-.01,1.07-.23,.31-.22,.53-.54,.59-.92l3.1-16.86c.14-.78-.37-1.52-1.15-1.66l-23.72-4.36ZM30,26c0,.55-.45,1-1,1s-1-.45-1-1,.45-1,1-1,1,.45,1,1Zm3-1c-.55,0-1,.45-1,1s.45,1,1,1,1-.45,1-1-.45-1-1-1Zm4,0c-.55,0-1,.45-1,1s.45,1,1,1,1-.45,1-1-.45-1-1-1Z"></path>
</svg>