<svg viewBox="0 0 28 28" class="icon-small" xmlns="http://www.w3.org/2000/svg">
<title>Support</title>
<path class="transparent" d="M12.16,10.01l5.83,5.83c1.32-0.5,2.87-0.22,3.93,0.84c1.14,1.14,1.38,2.84,0.72,4.21l-2.17-2.17 c-0.48-0.48-1.25-0.48-1.73,0c-0.48,0.48-0.48,1.25,0,1.73l2.18,2.18c-1.38,0.67-3.09,0.43-4.23-0.71c-1.06-1.06-1.34-2.59-0.85-3.9 l-5.85-5.85c-1.31,0.49-2.85,0.2-3.9-0.85C4.94,10.17,4.7,8.48,5.36,7.1l2.17,2.17c0.48,0.48,1.25,0.48,1.73,0 c0.48-0.48,0.48-1.25,0-1.73L7.08,5.37c1.38-0.67,3.09-0.43,4.23,0.71C12.38,7.15,12.66,8.69,12.16,10.01L12.16,10.01z"></path>
<path d="M8.33,18.64l4.01-4l-0.49-0.49l7.6-8.87c0.37-0.37,0.96-0.37,1.33,0l1.95,1.95c0.37,0.37,0.37,0.96,0,1.33 l-8.8,7.66l-0.54-0.54l-4.01,4l-1.36,2.55L6.05,23L5,21.95l0.8-2L8.33,18.64L8.33,18.64z"></path>
</svg>