<svg viewBox="0 0 28 28" class="icon-small" xmlns="http://www.w3.org/2000/svg">
<title>Team</title>
<path class="transparent" d="M10,18.21c0,2.38-6,2.38-6,0C4,14.74,5.42,13,7,13C8.58,13,10,14.74,10,18.21z M7,8c-1.1,0-2,0.9-2,2s0.9,2,2,2 s2-0.9,2-2S8.1,8,7,8z"></path>
<path class="transparent" d="M24,18.21c0,2.38-6,2.38-6,0c0-3.48,1.42-5.21,3-5.21C22.58,13,24,14.74,24,18.21z M21,8c-1.1,0-2,0.9-2,2 s0.9,2,2,2s2-0.9,2-2S22.1,8,21,8z"></path>
<path d="M19,20c0,4-10,4-10,0c0-4.74,2.26-7,5-7S19,15.26,19,20z M17,9c0,1.66-1.34,3-3,3s-3-1.34-3-3s1.34-3,3-3 S17,7.34,17,9z"></path>
</svg>