<svg height="64" viewBox="0 0 64 64" width="64" xmlns="http://www.w3.org/2000/svg" xmlns:xlink="http://www.w3.org/1999/xlink"><linearGradient id="a"><stop offset="0" stop-color="#86acff"/><stop offset="1" stop-color="#3776ff"/></linearGradient><linearGradient id="b" x1="44.341989%" x2="55.884331%" xlink:href="#a" y1="0%" y2="100.999999%"/><linearGradient id="c" x1=".309195%" x2="101.678436%" xlink:href="#a" y1="0%" y2="100.999999%"/><g fill="none"><path d="m36.92 19.2934102v26.7583129c4.1739743 1.8786355 7.08 6.0740869 7.08 10.9482769 0 5.2248753-3.3392305 9.6698315-8 11.3171772v-9.9767905c0-2.1870476-1.7729524-3.96-3.96-3.96s-3.96 1.7729524-3.96 3.96v10.0047466c-4.7025112-1.6245454-8.08-6.090412-8.08-11.3451333 0-4.8429888 2.86894-9.0159007 6.9999995-10.9119153l.0000005-26.8310359c-4.1310598-1.8960144-7-6.0689265-7-10.91191552 0-5.2248753 3.3392305-9.66983153 8-11.31717717v9.97679045c0 2.18704761 1.7729524 3.96000004 3.96 3.96000004s3.96-1.77295243 3.96-3.96000004v-10.00474656c4.7025112 1.62454543 8.08 6.09041197 8.08 11.34513328 0 4.87419002-2.9060257 9.06964142-7.08 10.94827692z" fill="url(#b)" opacity=".4" transform="matrix(.70710678 -.70710678 .70710678 .70710678 -13.730411 32.19699)"/><path d="m13.0208153 47.4000735 13.3208381-13.3208381-1.6225067-1.6230892 25.2122522-29.53831793c1.2173861-1.22377103 3.1839329-1.22377103 4.4013191 0l6.4685281 6.490466c1.2173861 1.22377103 1.2173861 3.20063193 0 4.42440293l-29.1967539 25.5112664-1.7844978-1.7851384-13.3202138 13.3202137-4.5051951 8.5051951-6.53953933 2.5395394-3.47896536-3.4789654 2.66698078-6.6669808z" fill="url(#c)"/></g></svg>