<svg width="168" height="112" viewBox="0 0 168 112" xmlns="http://www.w3.org/2000/svg">
<title>Web Design Freelancers</title>
<path d="M88,81c-4.96,0-9,4.04-9,9s4.04,9,9,9,9-4.04,9-9-4.04-9-9-9Zm0,16c-3.86,0-7-3.14-7-7s3.14-7,7-7,7,3.14,7,7-3.14,7-7,7Zm79-48h-6v-16c0-1.65-1.35-3-3-3h-3v-9c0-1.65-1.35-3-3-3h-2c-.39,0-.77,.08-1.12,.22-.35-1.27-1.5-2.22-2.88-2.22h-2c-1.65,0-3,1.35-3,3v4.18c-.31-.11-.65-.18-1-.18h-2c-.35,0-.69,.07-1,.18v-.18c0-1.65-1.35-3-3-3h-2c-1.65,0-3,1.35-3,3v26h-8c-.55,0-1,.45-1,1s.45,1,1,1h46c.55,0,1-.45,1-1s-.45-1-1-1Zm-14-6h-4V26h4v17Zm-3-23h2c.55,0,1,.45,1,1v3h-4v-3c0-.55,.45-1,1-1Zm-19,29V23c0-.55,.45-1,1-1h2c.55,0,1,.45,1,1v26h-4Zm6,0V26c0-.55,.45-1,1-1h2c.55,0,1,.45,1,1v23h-4Zm6,0V19c0-.55,.45-1,1-1h2c.55,0,1,.45,1,1v30h-4Zm6,0v-4h4v4h-4Zm6,0v-17h3c.55,0,1,.45,1,1v16h-4Zm12,61h-15.9l1.83-20.16c1.2-.39,2.07-1.51,2.07-2.84,0-1.65-1.35-3-3-3h-16c-1.65,0-3,1.35-3,3,0,1.33,.87,2.44,2.07,2.84l1.83,20.16h-14.9v-36c0-2.76-2.24-5-5-5h-6.08c-2.69-4.12-6.73-7.28-11.48-8.87,3.99-3.21,6.55-8.12,6.55-13.63v-4.5c.26,0,.51-.1,.7-.29,.19-.19,.3-.45,.3-.71v-3.35c0-9.61-5.26-17.44-11.76-17.63-.81-1.22-2.17-2.02-3.72-2.02h-4.35c-10.14,0-18.55,8.1-19.14,18.43-.05,.82-.18,1.71-.45,2.86l-.56,2.48c-.07,.3,0,.61,.19,.84,.19,.24,.48,.38,.78,.38h2v3.5c0,5.51,2.56,10.42,6.55,13.63-4.75,1.59-8.78,4.75-11.48,8.87h-6.08c-2.76,0-5,2.24-5,5v31h-.3c-2.04,0-3.7,1.66-3.7,3.7v1.3h-6.36c2.04-1.65,3.36-4.17,3.36-7v-16c0-.55-.45-1-1-1h-1.49l.98-12.75c.01-.15-.01-.31-.07-.45l-1.69-4.14c-.14-.35-.47-.59-.85-.62-.38-.03-.74,.16-.93,.48l-2.3,3.84c-.08,.13-.13,.28-.14,.44l-1.01,13.21h-.39l-1.07-7.36c-.02-.15-.08-.3-.17-.43l-2.55-3.67c-.22-.31-.59-.47-.96-.42-.38,.05-.69,.32-.81,.68l-1.4,4.25c-.05,.15-.06,.3-.04,.46l.94,6.5h-2.04c-.55,0-1,.45-1,1v16c0,2.83,1.31,5.35,3.36,7h-9.38c-.25-4.77-4.03-8.61-8.77-8.96l-6.97-18.59c1.63-.82,2.76-2.5,2.76-4.45s-1.1-3.57-2.69-4.41l7.58-15.84c1.37-2.86,4.03-4.87,7.07-5.51-1.34,2.72-1.75,5.78-1.13,8.8,.74,3.6,2.83,6.71,5.9,8.73l.63,.41c.17,.11,.36,.17,.55,.17,.32,0,.64-.16,.84-.45l14.08-21.32c.15-.22,.2-.49,.15-.75-.05-.26-.21-.49-.43-.63l-.63-.41c-3.07-2.03-6.75-2.74-10.35-2-3.34,.68-6.23,2.54-8.25,5.24-4.37,.25-8.33,2.89-10.23,6.86l-7.73,16.15c-.12,0-.23-.04-.35-.04-2.76,0-5,2.24-5,5s2.24,5,5,5c.1,0,.2-.02,.3-.03l6.8,18.14c-4.41,.66-7.84,4.35-8.07,8.89H1c-.55,0-1,.45-1,1s.45,1,1,1H167c.55,0,1-.45,1-1s-.45-1-1-1ZM31.96,46.74c.79-.16,1.59-.24,2.38-.24,2.2,0,4.36,.62,6.26,1.82l-12.98,19.64c-2.51-1.73-4.23-4.33-4.84-7.33-.63-3.08-.02-6.22,1.71-8.85,1.73-2.62,4.38-4.42,7.47-5.05ZM13.5,103c3.97,0,7.23,3.1,7.48,7H6.02c.26-3.9,3.52-7,7.48-7Zm-8.5-28c1.65,0,3,1.35,3,3s-1.35,3-3,3-3-1.35-3-3,1.35-3,3-3Zm26,13h14v15c0,3.86-3.14,7-7,7s-7-3.14-7-7v-15Zm2.11-8.56l.7-2.12,1.28,1.84,.99,6.84h-2.02l-.95-6.56Zm9.52-8.18l.84,2.07-.97,12.67h-2.01l.98-12.82,1.15-1.92Zm20.87,38.74h-7.5v-36c0-1.65,1.35-3,3-3h58c1.65,0,3,1.35,3,3v36H63.5Zm-11.5-1.3c0-.94,.76-1.7,1.7-1.7h.3v3h-2v-1.3Zm20-65.7h6.45c8.47,0,15.56-4.53,17.2-10.54,2.18,6.3,6.01,8.44,8.36,9.16v4.87c0,8.55-6.95,15.5-15.5,15.5h-1c-8.55,0-15.5-6.95-15.5-15.5v-3.5Zm-2.46-3.26c.29-1.27,.44-2.25,.49-3.19,.53-9.28,8.05-16.54,17.14-16.54h4.35c1.37,0,2.48,1.15,2.48,2.56v7.25c0,6.17-6.98,11.19-15.55,11.19h-9.19l.29-1.26Zm35.46-2.09v2.19c-2.51-.62-8.69-3.6-8.99-17.76,5.04,.8,8.99,7.47,8.99,15.57Zm-17.5,26.35h1c1.29,0,2.55-.15,3.76-.42-.88,1.44-2.45,2.42-4.26,2.42s-3.38-.97-4.26-2.42c1.21,.27,2.47,.42,3.76,.42Zm-8.79-2.39c.81,.47,1.66,.88,2.54,1.22,.81,2.98,3.52,5.17,6.75,5.17s5.94-2.2,6.75-5.17c.89-.34,1.73-.75,2.54-1.22,4.53,1.12,8.44,3.78,11.17,7.39h-40.92c2.73-3.62,6.64-6.27,11.17-7.39Zm60.21,48.39l-1.82-20h13.81l-1.82,20h-10.18Zm-2.91-24h16c.55,0,1,.45,1,1s-.45,1-1,1h-16c-.55,0-1-.45-1-1s.45-1,1-1Zm-56-37v-2c0-.55,.45-1,1-1s1,.45,1,1v2c0,.55-.45,1-1,1s-1-.45-1-1Zm15-3c.55,0,1,.45,1,1v2c0,.55-.45,1-1,1s-1-.45-1-1v-2c0-.55,.45-1,1-1Z"></path>
<path class="transparent" d="M120,110v-36c0-1.65-1.35-3-3-3H59c-1.65,0-3,1.35-3,3v36H120Zm-32-11c-4.96,0-9-4.04-9-9s4.04-9,9-9,9,4.04,9,9-4.04,9-9,9Zm-51.92-13h-2.02l-.95-6.56,.7-2.12,1.28,1.84,.99,6.84Zm4.42,0l.98-12.82,1.15-1.92,.84,2.07-.97,12.67h-2.01Zm-27,17c3.97,0,7.23,3.1,7.48,7H6.02c.26-3.9,3.52-7,7.48-7ZM2,78c0-1.65,1.35-3,3-3s3,1.35,3,3-1.35,3-3,3-3-1.35-3-3ZM45,30c8.27,0,15-6.73,15-15S53.27,0,45,0s-15,6.73-15,15,6.73,15,15,15Zm0-28c7.17,0,13,5.83,13,13s-5.83,13-13,13-13-5.83-13-13,5.83-13,13-13Zm99,91c-3.31,0-6,2.69-6,6s2.69,6,6,6,6-2.69,6-6-2.69-6-6-6Zm0,10c-2.21,0-4-1.79-4-4s1.79-4,4-4,4,1.79,4,4-1.79,4-4,4ZM105,37.65v2.19c-2.51-.62-8.69-3.6-8.99-17.76,5.04,.8,8.99,7.47,8.99,15.57Zm-35.75,3.35l.29-1.26c.29-1.27,.44-2.25,.49-3.19,.53-9.28,8.05-16.54,17.14-16.54h4.35c1.37,0,2.48,1.15,2.48,2.56v7.25c0,6.17-6.98,11.19-15.55,11.19h-9.19Zm-15.25,69h-2v-1.3c0-.94,.76-1.7,1.7-1.7h.3v3Zm-4.05-88.63l-5.95-5.95v-6.41c0-.55,.45-1,1-1s1,.45,1,1v5.59l5.37,5.37c.39,.39,.39,1.02,0,1.41-.2,.2-.45,.29-.71,.29s-.51-.1-.71-.29Z"></path>
</svg>