<svg height="50" viewBox="0 0 109 50" width="109" xmlns="http://www.w3.org/2000/svg"><g fill="none" fill-rule="evenodd"><path d="m66.6401285 48.7707265.1333397 1.0508306c-.2711254.0704963-.5155791.1057439-.7333683.1057439-.3422403 0-.6178063-.0671908-.8267061-.2015744-.2088999-.1343836-.3522387-.3183322-.4300206-.5518512-.0777818-.2335191-.1166722-.6983472-.1166722-1.3944984v-4.0380972h-.7200343v-.9252596h.7200343v-1.7381662l.9800468-.7137717v2.4519379h.9933807v.9252596h-.9933807v4.1041872c0 .3789177.0288899.6234481.0866708.7335986.0844489.1586168.2422326.2379239.4733559.2379239.1111169 0 .2555668-.0154208.433354-.046263zm2.2083664 1.0640486v-9.6887897h.9800468v3.4763324c.2311233-.3216394.4922442-.5628654.7833707-.7236851.2911264-.1608198.6122497-.2412284.9633793-.2412284.6178103 0 1.1056065.1949634 1.4634031.5848962s.5366923 1.1047988.5366923 2.1446196v4.447855h-.9800468v-4.447855c0-.6080308-.108893-1.0442203-.3266822-1.3085815-.2177893-.2643612-.5178006-.3965398-.9000429-.3965398-.4266892 0-.7900362.1696293-1.090052.5088928-.3000159.3392635-.4500215.9406763-.4500215 1.8042562v3.8398273zm11.4888092-2.260277 1.0133816.1520069c-.1688977.7490234-.4744648 1.314087-.9167103 1.6952078-.4422456.3811207-.990044.5716782-1.6434118.5716782-.8222655 0-1.4878462-.3095183-1.9967619-.9285641s-.7633697-1.512353-.7633697-2.6799483c0-1.2116555.2566763-2.1358043.7700367-2.7724742s1.1633849-.9550001 1.950093-.9550001c.7511507 0 1.377841.3128227 1.8800897.9384776.5022487.6256548.7533693 1.5310784.7533693 2.7162977l-.006667.3172319h-4.33354c.0400021.7886776.2244535 1.3834814.5533597 1.7844292s.7289213.6014187 1.2000572.6014187c.7378167 0 1.2511694-.4802489 1.5400735-1.4407613zm-3.2334876-1.9232182h3.2401546c-.0444468-.6080307-.1755629-1.061844-.3933521-1.3614533-.3155722-.436196-.7178096-.6542908-1.2067243-.6542908-.4400231 0-.8155929.1817456-1.1267204.5452423s-.482245.853659-.5133578 1.4705018zm6.788585 4.1834952v-7.0187549h.8800419v.9847406c.1955659-.3656997.4466865-.6476808.7533693-.8459517s.642251-.2974048 1.0067147-.2974048c.4089104 0 .754479.1046414 1.0367161.3139273.2822371.209286.4833558.5143983.6033621.9153461.2311233-.4097598.4966889-.7170751.7967047-.9219551.3000158-.2048799.6322505-.3073183.9967142-.3073183.5555848 0 .9933791.187253 1.313396.5617647.3200168.3745117.4800229.9737215.4800229 1.7976472v4.8179589h-.9800468v-4.4214191c0-.5022862-.036668-.858067-.1100052-1.067353-.0733372-.2092859-.1922306-.3712047-.3566837-.4857613-.1644531-.1145565-.3489045-.1718339-.5533597-.1718339-.4222445 0-.7667019.1663248-1.0333827.4989793-.2666807.3326545-.400019.8558615-.400019 1.5696368v4.0777512h-.9867138v-4.560208c0-.5815946-.0900034-.9913484-.2700129-1.2292734-.1800094-.2379251-.4277966-.3568859-.7433687-.3568859-.4489126 0-.8033704.1795426-1.0633841.5386333-.2600137.3590906-.3900186 1.0144763-.3900186 1.9661766v3.6415574zm14.575623-2.260277 1.0133817.1520069c-.1688978.7490234-.4744649 1.314087-.9167104 1.6952078-.4422456.3811207-.990044.5716782-1.6434118.5716782-.8222655 0-1.4878462-.3095183-1.9967619-.9285641s-.7633697-1.512353-.7633697-2.6799483c0-1.2116555.2566763-2.1358043.7700367-2.7724742s1.1633849-.9550001 1.950093-.9550001c.7511507 0 1.377841.3128227 1.8800897.9384776.5022487.6256548.7533693 1.5310784.7533693 2.7162977l-.006667.3172319h-4.33354c.0400021.7886776.2244535 1.3834814.5533597 1.7844292s.7289213.6014187 1.2000572.6014187c.7378167 0 1.2511694-.4802489 1.5400735-1.4407613zm-3.2334876-1.9232182h3.2401546c-.0444468-.6080307-.1755629-1.061844-.3933521-1.3614533-.3155722-.436196-.7178096-.6542908-1.2067242-.6542908-.4400232 0-.815593.1817456-1.1267205.5452423s-.482245.853659-.5133578 1.4705018zm6.4019001 2.0884431.97338-.1850519c.05778.4934742.215564.8602699.473355 1.100398.257792.2401281.600027.3601903 1.026716.3601903s.756702-.1046414.990047-.3139273c.233346-.209286.350017-.4747447.350017-.7963842 0-.2775792-.100004-.493471-.300014-.6476817-.137785-.1057445-.471131-.2379231-1.000048-.3965398-.764485-.2335191-1.275615-.431787-1.533406-.5948097-.257792-.1630228-.457799-.3811175-.600029-.6542907-.14223-.2731733-.213344-.583793-.213344-.9318686 0-.5992188.193341-1.0860767.580028-1.4605884s.922263-.5617647 1.606743-.5617647c.431134 0 .810037.0771042 1.136721.2313149s.576694.3612905.750036.6212457.293347.6322583.360017 1.1169205l-.960046.1586159c-.088893-.7666475-.508909-1.1499655-1.26006-1.1499655-.426689 0-.744479.0848147-.953379.2544464-.208899.1696318-.313348.386625-.313348.6509862 0 .2599552.100004.4648321.300015.6146368.120006.0881204.475575.2291109 1.066717.4229758.813376.2599552 1.340063.4659335 1.580075.6179412.240013.1520077.426687.3590875.560027.6212457s.20001.5738795.20001.9351731c0 .6697151-.214453 1.2116474-.643364 1.6258133-.428912.4141659-1.014489.6212457-1.756751.6212457-1.391184 0-2.197881-.7534181-2.420115-2.260277z" fill="#8c99a2"/><path d="m0 27.2612841c0-3.0468398.80228404-5.4930639 2.40687618-7.3387457s3.55924779-2.7685089 5.86402559-2.7685089c1.48789453 0 2.91741883.4101454 4.28861573 1.2304484s2.5089816 1.8456664 3.413388 3.0761209c.2333953.2929654.3500911.6152225.3500911.9667809v.0878892c0 .2636688-.0729349.4980376-.2188069.7031133-.145872.2050758-.3792637.3881764-.7001822.5493074-.3209184.1611309-.5980711.2856393-.8314663.3735289s-.5761893.205074-1.0283925.3515567c-.4522033.1464827-.7366494.234371-.853347.2636675-6.09745018 2.1093507-9.21906443 3.2079543-9.36493644 3.2958439-.11669761.0585931-.17504554.1464814-.17504554.2636675 0 .1757792.04376095.4687402.13128416.8788917.0875232.4101515.28444747.9521293.59077869 1.6259497.30633123.6738203.68559278 1.2963624 1.13779601 1.8676448.45220324.5712825 1.10132396 1.0693162 1.94738164 1.4941159.84605767.4247998 1.79421153.6371965 2.84449002.6371965 2.04220816 0 3.82182006-.7324024 5.33888896-2.1972292.4084417-.4101516.7439422-.6152242 1.0065119-.6152242.4959648 0 .7439435.2197207.7439435.6591687 0 .1757793-.1166958.410148-.3500911.7031134-.9335808 1.2304545-2.1005394 2.2045498-3.5009108 2.9223149-1.4003713.7177652-2.8736565 1.0766424-4.41989985 1.0766424-.99192969 0-1.96196402-.1757766-2.91013211-.5273351-.94816808-.3515584-1.86714797-.8935362-2.75696725-1.6259496s-1.60458142-1.7870729-2.14430787-3.1640101c-.53972644-1.3769373-.80958562-2.9735746-.80958562-4.7899598zm11.9906195-4.658126c0-.380855-.5105444-.974101-1.5316485-1.7797557-1.02110407-.8056548-2.08595379-1.2084761-3.19458109-1.2084761-1.31284811 0-2.35581736.5712739-3.12893903 1.7138388-.77312166 1.1425649-1.1596767 2.7099061-1.1596767 4.7020706 0 .2343723.07293491.3515567.21880693.3515567.0583488 0 1.45140563-.5346538 4.17921227-1.6039774 2.72780662-1.0693236 4.13545042-1.6186254 4.22297362-1.6479219.2625697-.1464827.3938525-.3222593.3938525-.527335zm13.7461521 13.3152092c0 .5859308-.1750438.8788917-.5251366.8788917-.0291744 0-.1239898-.007324-.284449-.0219722-.1604593-.0146483-.3719705-.0366204-.6345401-.0659169-.2625696-.0292966-.5543093-.0585927-.8752277-.0878892-.3209185-.0292965-.70018-.0512686-1.137796-.0659169-.4376161-.0146482-.8606386-.0219723-1.2690802-.0219723s-.8168771.0073241-1.2253188.0219723c-.4084416.0146483-.7731162.0292963-1.0940346.0439446s-.6053646.0366204-.853347.0659169-.4449067.0512686-.5907787.0659169c-.145872.0146482-.2333939.0219723-.2625683.0219723-.4376161 0-.6564208-.2636649-.6564208-.7910026v-.1318337c0-.380855.0948154-.6225478.284449-.7250857s.7074715-.1977502 1.5535292-.2856398c.5251392-.0585931.8679333-.2270456 1.0283925-.5053627s.2406876-.6811384.2406876-1.2084761v-22.8951289c0-.0878896-.0072935-.1684538-.0218807-.24169517-.0145872-.07324135-.0364676-.13915756-.065642-.19775064-.0291744-.05859307-.0510549-.10986124-.0656421-.15380605-.0145872-.0439448-.0583482-.08788895-.1312842-.13183375-.072936-.04394481-.1312839-.08056493-.1750455-.10986146-.0437616-.02929654-.1312835-.08056471-.2625683-.15380605s-.2261002-.12450951-.284449-.15380605c-.291744-.17577922-.6053642-.35887983-.9408698-.54930731-.3355056-.19042749-.5688973-.32958395-.7001822-.41747356-.1312848-.08788961-.2698611-.18310193-.4157331-.28563981-.145872-.10253787-.2406874-.19042617-.284449-.26366751s-.0656421-.15380561-.0656421-.24169521v-.04394459c0-.14648268.5543053-.5126839 1.6629326-1.09861463 1.371197-.67382034 2.6548514-1.33298252 3.8510019-1.97750633.1750464-.11718615.3646772-.17577834.568898-.17577834.4084417 0 .6126594.27831292.6126594.83494712v28.47609114c0 .1757792.0072935.3222597.0218807.4394459.0145872.1171861.0364677.2270465.0656421.3295844.0291744.1025378.0583484.1831021.0875228.2416952s.0948158.1171852.1969262.1757783.1750453.1025372.2188069.1318338c.0437616.0292965.1458705.0659166.3063297.1098614s.2771551.0732409.3500911.0878892.2333928.0366204.4813752.0659169.4303197.0585926.5470173.0878892c.4959649.0878896.7439436.3954986.7439436.9228362zm-1.3715624-8.6570832c0-3.0468398.8022841-5.4930639 2.4068762-7.3387457s3.5592478-2.7685089 5.8640256-2.7685089c1.4878945 0 2.9174188.4101454 4.2886157 1.2304484s2.5089816 1.8456664 3.4133881 3.0761209c.2333952.2929654.350091.6152225.350091.9667809v.0878892c0 .2636688-.0729349.4980376-.2188069.7031133-.145872.2050758-.3792637.3881764-.7001822.5493074-.3209184.1611309-.598071.2856393-.8314663.3735289-.2333952.0878896-.5761893.205074-1.0283925.3515567-.4522033.1464827-.7366494.234371-.853347.2636675-6.0974502 2.1093507-9.2190644 3.2079543-9.3649364 3.2958439-.1166976.0585931-.1750456.1464814-.1750456.2636675 0 .1757792.043761.4687402.1312842.8788917s.2844475.9521293.5907787 1.6259497c.3063312.6738203.6855928 1.2963624 1.137796 1.8676448.4522032.5712825 1.101324 1.0693162 1.9473816 1.4941159.8460577.4247998 1.7942116.6371965 2.8444901.6371965 2.0422081 0 3.82182-.7324024 5.3388889-2.1972292.4084417-.4101516.7439423-.6152242 1.0065119-.6152242.4959648 0 .7439435.2197207.7439435.6591687 0 .1757793-.1166958.410148-.350091.7031134-.9335809 1.2304545-2.1005395 2.2045498-3.5009108 2.9223149-1.4003714.7177652-2.8736566 1.0766424-4.4198999 1.0766424-.9919297 0-1.961964-.1757766-2.9101321-.5273351-.9481681-.3515584-1.867148-.8935362-2.7569673-1.6259496s-1.6045814-1.7870729-2.1443079-3.1640101c-.5397264-1.3769373-.8095856-2.9735746-.8095856-4.7899598zm12.3619766-4.658126c0-.380855-.5105444-.974101-1.5316485-1.7797557-1.0211041-.8056548-2.0859538-1.2084761-3.1945811-1.2084761-1.3128481 0-2.3558173.5712739-3.128939 1.7138388s-1.1596767 2.7099061-1.1596767 4.7020706c0 .2343723.0729349.3515567.2188069.3515567.0583488 0 1.4514056-.5346538 4.1792123-1.6039774 2.7278066-1.0693236 4.1354504-1.6186254 4.2229736-1.6479219.2625697-.1464827.3938525-.3222593.3938525-.527335zm4.9276183 1.4501713c0-1.9042749.6928817-3.5448564 2.0786658-4.9217936s3.0997546-2.0653955 5.1419627-2.0653955c1.2544994 0 2.4725124.2636649 3.6540757.7910026 1.1815633.5273376 1.845271.7910025 1.991143.7910025.9335809 0 1.7212779-.4687376 2.3631148-1.4062267.437616-.7031169.8606385-1.0546701 1.2690802-1.0546701.4084416 0 .7949966.1977487 1.1596767.5932519.36468.3955033.5470173.8129726.5470173 1.2524207 0 .5273377-.2260982.9814272-.6783015 1.3622821-.4522032.380855-.9773346.6957881-1.5754098.9448086-.5980753.2490206-.9116954.388177-.9408698.4174736-.145872.1464827-.218807.263667-.218807.3515567 0 .058593.043761.2050735.1312842.4394458s.1750451.5639534.2625683.9887532.1312842.8862133.1312842 1.3842544c0 2.0800541-.7220557 3.859792-2.1661886 5.3392671s-3.2018643 2.2192015-5.2732469 2.2192015c-.583488 0-1.1377934-.0659162-1.6629326-.1977506-.5251393-.1318344-.8460529-.1977506-.9627505-.1977506-.4084416 0-.8460511.2563408-1.3128415.7690302-.4667905.5126894-.7001822 1.0180471-.7001822 1.5160882 0 .7910065.6345337 1.3183362 1.9036203 1.5820051 1.2690865.2636688 2.8882415.4247973 4.8575137.4833904s3.376916.2197216 4.2229736.4833904c1.3420226.380855 2.3558178 1.0326932 3.0414163 1.9555341s1.0283926 1.9262322 1.0283926 3.0102041c0 .6738203-.1458699 1.3476305-.4376139 2.0214509-.291744.6738203-.765821 1.3329825-1.422245 1.9775063-.6564241.6445238-1.6264584 1.1718536-2.9101321 1.5820051s-2.8007199.6152242-4.5511841.6152242c-3.2383586 0-5.5066344-.593246-6.8048953-1.7797557-1.2982609-1.1865098-1.9473817-2.4828621-1.9473817-3.8890958 0-.2929654.029174-.5786023.0875228-.8569194s.1312837-.5273339.2188069-.747058c.0875232-.219724.1823386-.4247967.284449-.6152242.1021104-.1904274.2188063-.366204.3500911-.527335.1312848-.1611309.2625677-.3002874.3938525-.4174735.1312848-.1171862.2552741-.2197225.3719718-.3076121.1166976-.0878896.2188064-.1684539.3063296-.2416953.0875233-.0732413.1604582-.1245095.218807-.153806l.0875227-.0439446c.0583488-.0585931.0875228-.1318333.0875228-.2197229 0-.0292966-.1385763-.1318329-.4157331-.3076121-.2771569-.1757792-.5543095-.4687402-.8314664-.8788917-.2771568-.4101515-.4157331-.9081852-.4157331-1.4941159 0-1.4355303.831458-2.8270949 2.4943989-4.1747356l.0437614-.0439446c.0291744-.0292965.0437614-.0732407.0437614-.1318337 0-.1171862-.1312828-.2490186-.3938525-.3955013-.2625696-.1464827-.6199507-.4321196-1.0721539-.8569194s-.8679322-.9741016-1.2471995-1.647922c-.5543136-.9960822-.8314663-2.0946858-.8314663-3.2958438zm7.3519127-5.4930732c-1.1378017 0-2.0713686.4614135-2.8007286 1.3842545-.7293601.9228409-1.0940347 2.1166568-1.0940347 3.5814836 0 1.7284957.4376095 3.2225967 1.3128416 4.4823477.8752321 1.2597511 1.9838427 1.8896172 3.3258652 1.8896172 1.1961505 0 2.1588914-.4760616 2.8882515-1.428199.72936-.9521375 1.0940346-2.1313054 1.0940346-3.5375391 0-1.6699026-.444903-3.1493555-1.3347223-4.4384031-.8898192-1.2890476-2.0203104-1.9335618-3.3915073-1.9335618zm-4.6387068 21.928348c0 1.3183441.6928817 2.3876517 2.0786658 3.2079547s3.1289285 1.2304484 5.2294855 1.2304484c2.0713826 0 3.5373743-.3295811 4.3980192-.9887532.8606449-.659172 1.2909608-1.4135465 1.2909608-2.2631461 0-1.2304545-.5980662-2.1239855-1.7942168-2.6806197-.6126624-.3222619-1.3274245-.5346586-2.1443078-.6371965s-1.9619614-.1757781-3.4352687-.2197229c-1.4733074-.0439448-2.7642553-.1245091-3.8728826-.2416952h-.1312842c-.2042208 0-.4667865.1611285-.7877049.4833904-.5543136.5566342-.8314663 1.2597405-.8314663 2.1093401zm14.7976547-19.4674512c0-.8788961.7074686-1.765103 2.1224272-2.6586474 1.4149585-.8935444 2.9976461-1.3403099 4.7481102-1.3403099.5543137 0 1.123206.0585922 1.7066941.1757784.583488.1171861 1.2471957.3222588 1.991143.6152242.7439472.2929653 1.3711875.798323 1.8817395 1.5160882.5105521.7177651.8241722 1.589324.9408698 2.6147028.0583488.7031169.0875228 1.2450946.0875228 1.6259496v8.8768062c0 .5273377.1021089.9521311.3063297 1.274393s.4084385.5200105.6126594.5932519c.2042208.0732413.4084385.1098615.6126594.1098615.4084416 0 .7293552-.1245085.9627504-.373529.2333952-.2490206.4157325-.4980374.5470173-.747058.1312849-.2490205.2844482-.3735289.4594946-.3735289.2625696 0 .3938524.1904246.3938524.5712796 0 .7031168-.3209136 1.4721394-.9627504 2.3070907-.6418369.8349513-1.4732949 1.2524207-2.494399 1.2524207-.3792672 0-.7439418-.0585922-1.0940346-.1757784-.3500928-.1171861-.6418325-.2709906-.8752277-.4614181s-.4449065-.3735281-.6345401-.5493073c-.1896336-.1757793-.3427969-.3369078-.4594945-.4833905l-.1312842-.1757783c-.0437614-.0366206-.0583483-.0439446-.0875227-.0439446-.0583488 0-.1021098.0292961-.1312842.0878892-.0291744.058593-.1312833.1757774-.3063297.3515567-.1750464.1757792-.4230251.3662038-.7439435.5712796-1.3128482.820303-2.6986115 1.2304483-4.1573316 1.2304483-1.5170689 0-2.749669-.4833856-3.6978371-1.4501713-.948168-.9667857-1.422245-2.1532776-1.422245-3.5595114 0-1.7431437.6272403-3.0761161 1.8817396-4.0429018.437616-.3515584 1.0065083-.6664915 1.706694-.9448086s1.3930673-.4907138 2.0786658-.6371965c.6855985-.1464826 1.3347192-.2709911 1.9473816-.3735289.6126625-.1025379 1.1232069-.1684541 1.5316485-.1977507l.6126594-.0439446c.2333952-.058593.3500911-.2636657.3500911-.6152241v-1.6259497c0-1.5527164-.3500876-2.7538564-1.0502733-3.603456-.72936-.7910065-1.604579-1.1865038-2.6256831-1.1865038-1.5754177 0-2.8590722.9960673-3.8510018 2.9882318-.2625697.3515585-.5834833.527335-.9627505.527335-.4667905 0-.8825195-.1464804-1.2471995-.4394458s-.5470173-.6884627-.5470173-1.1865038zm6.3454008 13.9304335c.6710113 0 1.305545-.1464805 1.9036203-.4394459.5980752-.2929653 1.0138042-.5566302 1.2471994-.7910025.2333953-.2343723.423026-.439445.5688981-.6152242.1750464-.2343723.2625683-.5712774.2625683-1.0107255v-2.9442872c0-.5566342-.0218805-.9155113-.0656421-1.0766423s-.167751-.2416952-.3719718-.2416952c-.7293601 0-1.6410465.1171844-2.7350866.3515567-1.09404.2343723-1.9619655.6591657-2.6038024 1.2743929-.7001856.5859308-1.0502732 1.4062215-1.0502732 2.4608968 0 1.1132684.3063266 1.9335591.9189891 2.4608968.4084416.3808549 1.0502688.5712796 1.9255009.5712796zm16.5894128-15.3806048c0 .1171861.0437609.1757783.1312841.1757783h.0437614c.0291744 0 .1385768-.0878883.3282104-.2636675s.4594928-.3954999.8095856-.6591688c.3500928-.2636688.7585283-.5273337 1.2253188-.7910025.4667904-.2636688 1.0356827-.4907136 1.706694-.6811411s1.3711864-.2856398 2.1005465-.2856398h.0875228c.6126624 0 1.2180222.0805643 1.8160974.2416952.5980753.161131 1.2399025.454092 1.925501.8788917.6855984.4247998 1.2617842 1.091286 1.7285747 1.9994787.4667904.9081926.7585301 2.0214443.8752277 3.3397884.0583488.4980412.0875228 1.2597397.0875228 2.2851185v.8569194c0 .4540963-.0072935 1.267063-.0218807 2.4389245-.0145872 1.1718614-.0218807 2.6659624-.0218807 4.4823476v.0878892c0 .1464827.0145869.2856391.0437614.4174736.0291744.1318344.0510548.2343707.065642.3076121.0145872.0732413.0656417.1464815.1531649.2197229.0875232.0732413.1531646.1245095.1969262.153806.0437616.0292966.1458705.0659167.3063297.1098615s.2771551.0659169.3500911.0659169.2333928.014648.4813752.0439446c.2479824.0292965.4303197.0585926.5470173.0878891.4376161.0585931.6564208.336906.6564208.8349471 0 .5859308-.2333917.8788917-.7001822.8788917-.0875232 0-.2917409-.021972-.6126593-.0659168-.3209185-.0439448-.7658214-.087889-1.3347223-.1318338-.5689008-.0439448-1.1742606-.0659169-1.8160975-.0659169-.3792672 0-.7585287.0073241-1.137796.0219723-.3792672.0146483-.7074743.0366204-.9846311.0659169-.2771569.0292965-.5324291.0585926-.7658243.0878892-.2333952.0292965-.423026.0585926-.568898.0878891h-.2188069c-.4084416 0-.6126594-.2929609-.6126594-.8788917 0-.3222619.0875219-.5273345.2625683-.6152241.1750464-.0878897.6418299-.190426 1.4003643-.3076121.2625697-.0585931.4813744-.1025373.6564208-.1318338.291744-.0585931.4886683-.1538054.5907787-.2856398s.1531649-.3881753.1531649-.7690302v-6.9871891c0-2.1972402-.2042178-3.8231736-.6126594-4.8778489-.4376161-.9960823-1.0940303-1.6918646-1.9692624-2.0873678-.875232-.3955033-1.70669-.5932519-2.4943989-.5932519-1.1378017 0-2.1588905.3515531-3.063297 1.05467-.9044064.7031169-1.4149508 1.3183349-1.5316484 1.8456726-.0583488.2343723-.0875228.439445-.0875228.6152242v10.7664233c0 .76171.3355006 1.1865034 1.0065119 1.274393 1.3128481.2050758 2.0276102.3662043 2.1443078.4833905.1750464.1464826.2625683.3954995.2625683.7470579 0 .5273377-.1896307.7910025-.568898.7910025-.0291744 0-.1239898-.007324-.284449-.0219723-.1604592-.0146482-.3719704-.0366203-.6345401-.0659168-.2625696-.0292966-.5543092-.0659167-.8752277-.1098615-.3209184-.0439448-.6928864-.0732409-1.1159153-.0878892-.4230288-.0146482-.8387578-.0219723-1.2471995-.0219723-.4084416 0-.8168771.0073241-1.2253187.0219723-.4084417.0146483-.7658227.0366204-1.072154.0659169-.3063312.0292965-.5761904.0585926-.8095856.0878892-.2333952.0292965-.423026.0512686-.568898.0659169-.145872.0146482-.2333939.0219722-.2625683.0219722-.4959649 0-.7439436-.2636648-.7439436-.7910025 0-.4101515.0948154-.6664923.284449-.7690302.1896337-.1025379.6782976-.2123983 1.4660064-.3295844.5251393-.0878896.8533464-.2490182.9846312-.4833904.1312848-.2343723.1969262-.5859255.1969262-1.0546701v-10.7224788c0-.5273376-.0729349-.8862148-.2188069-1.0766423s-.7439383-.6811371-1.7942168-1.4721436c-.1750464-.1757792-.2625683-.3222597-.2625683-.4394459v-.0439445c0-.1464827.1021089-.2856392.3063297-.4174736s.8314611-.4760636 1.8817396-1.0326977c.8168832-.4394481 1.5024714-.8056493 2.0567851-1.0986147.1750464-.1171861.3209162-.1757783.4376138-.1757783.3500928 0 .5251366.2197207.5251366.6591688v1.7577834c0 .0292965-.0145869.0878887-.0437613.1757783zm14.20872.527335c-.6126624 0-.918989-.1904246-.918989-.5712796 0-.1757792.2115112-.4467681.63454-.8129748.4230289-.3662067 1.0283887-.9814248 1.8160975-1.8456726.7877089-.8642478 1.531645-1.8822872 2.2318302-3.0541487.320919-.5566342.612659-.8349471.875228-.8349471.408442 0 .61266.2490168.61266.747058 0 .2050757-.007294.7324055-.021881 1.582005-.014587.8495996-.021881 1.3769293-.021881 1.5820051 0 .5859307.29174.8788917.875228.8788917h4.026047c.058349 0 .131284.007324.218807.0219723.087523.0146482.145871.0219723.175046.0219723.758534 0 1.137796.2783129 1.137796.8349471s-.131283.9960756-.393853 1.3183375c-.145872.1464827-.408437.219723-.787705.219723h-5.251366c-.291744 0-.437614.1464805-.437614.4394458 0 2.4316126-.007293 4.4530433-.02188 6.0643528-.014588 1.6113095-.029175 2.6952651-.043762 3.2518993s-.02188.9521315-.02188 1.1865038c0 2.2265367.77311 3.3397884 2.319353 3.3397884.612662 0 1.25449-.2270447 1.925501-.681141s1.261784-.9081859 1.772336-1.3622822.897107-.681141 1.159677-.681141c.233395 0 .430319.0878883.590778.2636675.16046.1757792.240688.3662038.240688.5712796 0 .1757792-.102109.424796-.30633.7470579-2.363126 2.6952814-4.449065 4.0429019-6.257878 4.0429019-1.079453 0-2.064074-.4321175-2.9538932-1.2963653-.8898193-.8642478-1.4076572-2.2484884-1.5535292-4.1527633-.0291744-.3222619-.0437614-.8056475-.0437614-1.4501713 0-.7324134.029174-2.5121513.0875228-5.3392671s.0875227-4.3724849.0875227-4.6361537c0-.2636689-.1021088-.3955013-.3063296-.3955013z" fill="#20292f"/><path d="m86.5720598 14.5985401-3.1026161-2.4435324c.986267-1.1277899 2.013613-2.20683189 3.0820689-3.23715843.4246428-.41769994.6917528-.68223927.801338-.79362593-.3424538-.05569332-1.3218571-.28542485-2.9382391-.68920146-1.164343-.29238997-1.931428-.50819837-2.3012782-.64743168l1.2122805-3.67574116c1.794458.73793658 3.3971178 1.55243926 4.8080276 2.44353247-.3287557-2.26950304-.4931311-4.12127836-.4931311-5.55538151h3.6573886c0 1.0164032-.1849223 2.88210165-.5547725 5.5971513.2739631-.11138665.8629748-.38288754 1.7670529-.81451082 1.2328338-.5708566 2.3697634-1.05816589 3.410823-1.46194251l1.0889977 3.78016562c-1.520495.34808329-3.2806812.6891998-5.2806115 1.02335975l2.4656552 2.81946056c.4931335.5708566.883525 1.0372812 1.1711862 1.3992878l-3.1437104 2.1093742-2.773862-4.65733112c-.8355873 1.50371982-1.7944437 3.10487892-2.8765977 4.80352532z" fill="#f92c8b"/></g></svg>